<svg xmlns="http://www.w3.org/2000/svg" xmlns:xlink="http://www.w3.org/1999/xlink" xmlns:lucid="lucid" width="1651.38" height="2189.05"><g transform="translate(679.2525567872216 1073.1320772952515)" lucid:page-tab-id="0_0"><path d="M-1000-1500h2000v3000h-2000z" fill="#f2f3f5"/><path d="M-148.87-86.13a6 6 0 0 1 6-6h148a6 6 0 0 1 6 6v108a6 6 0 0 1-6 6h-148a6 6 0 0 1-6-6z" stroke="#ff80df" stroke-width="2" fill="#ffd6f5"/><use xlink:href="#a" transform="matrix(1,0,0,1,-136.87404181461307,-80.13207729525152) translate(6.791232638888893 57.52777777777778)"/><path d="M-368.87-706.13a6 6 0 0 1 6-6h148a6 6 0 0 1 6 6v108a6 6 0 0 1-6 6h-148a6 6 0 0 1-6-6z" stroke="#ff80df" stroke-width="2" fill="#ffd6f5"/><use xlink:href="#b" transform="matrix(1,0,0,1,-356.87404181461307,-700.1320772952515) translate(6.568793402777786 57.52777777777778)"/><use xlink:href="#c" transform="matrix(1,0,0,1,-356.87404181461307,-700.1320772952515) translate(79.73502604166667 57.52777777777778)"/><path d="M411.13-926.13a6 6 0 0 1 6-6h228a6 6 0 0 1 6 6v68a6 6 0 0 1-6 6h-228a6 6 0 0 1-6-6z" stroke="#ff80df" stroke-width="2" fill="#ffd6f5"/><use xlink:href="#d" transform="matrix(1,0,0,1,423.12595818538693,-920.1320772952515) translate(32.750434027777786 35.52777777777778)"/><use xlink:href="#e" transform="matrix(1,0,0,1,423.12595818538693,-920.1320772952515) translate(110.44140625 35.52777777777778)"/><g stroke="#54c45e" stroke-width="2"><path d="M905.13-72.13a6 6 0 0 1 6 6v78a6 6 0 0 1-6 6h-228a6 6 0 0 1-6-6v-78a6 6 0 0 1 6-6z" fill="#e3fae3"/><path d="M911.13-63.13h-240m240 72h-240" fill="none"/></g><use xlink:href="#f" transform="matrix(1,-2.4492935982947064e-16,2.4492935982947064e-16,1,676.1259581853868,-55.88207729525162) translate(23.837890625 37.083767361111114)"/><use xlink:href="#g" transform="matrix(1,-2.4492935982947064e-16,2.4492935982947064e-16,1,676.1259581853868,-55.88207729525162) translate(106.80230034722221 37.083767361111114)"/><g stroke="#54c45e" stroke-width="2"><path d="M-334.87-112.13a6 6 0 0 1 6 6v78a6 6 0 0 1-6 6h-228a6 6 0 0 1-6-6v-78a6 6 0 0 1 6-6z" fill="#e3fae3"/><path d="M-328.87-103.13h-240m240 72h-240" fill="none"/></g><use xlink:href="#h" transform="matrix(1,-2.4492935982947064e-16,2.4492935982947064e-16,1,-563.8740418146131,-95.88207729525155) translate(37.40125868055556 37.083767361111114)"/><use xlink:href="#g" transform="matrix(1,-2.4492935982947064e-16,2.4492935982947064e-16,1,-563.8740418146131,-95.88207729525155) translate(93.23893229166666 37.083767361111114)"/><g stroke="#54c45e" stroke-width="2"><path d="M965.13-482.13a6 6 0 0 1 6 6v78a6 6 0 0 1-6 6h-228a6 6 0 0 1-6-6v-78a6 6 0 0 1 6-6z" fill="#e3fae3"/><path d="M971.13-473.13h-240m240 72h-240" fill="none"/></g><use xlink:href="#i" transform="matrix(1,-2.4492935982947064e-16,2.4492935982947064e-16,1,736.1259581853869,-465.88207729525175) translate(26.474609375 37.083767361111114)"/><use xlink:href="#j" transform="matrix(1,-2.4492935982947064e-16,2.4492935982947064e-16,1,736.1259581853869,-465.88207729525175) translate(104.16558159722221 37.083767361111114)"/><path d="M-288.87-590.63v132.5a6 6 0 0 1-6 6h-168a6 6 0 0 0-6 6v116.6" stroke="#3a414a" fill="none"/><path d="M-288.4-590.62h-.95v-.5h.95z" stroke="#3a414a" stroke-width=".05" fill="#3a414a"/><path d="M-468.87-314.75l-4.64-14.27h9.26z" stroke="#3a414a" fill="#3a414a"/><path d="M411.13-702.13c0 27.6-49.25 50-110 50s-110-22.4-110-50c0-27.62 49.25-50 110-50s110 22.38 110 50z" stroke="#fcce14" stroke-width="2" fill="#fff3d9"/><use xlink:href="#k" transform="matrix(1,0,0,1,196.12595818538693,-747.1320772952515) translate(13.930121527777771 52.46527777777778)"/><use xlink:href="#l" transform="matrix(1,0,0,1,196.12595818538693,-747.1320772952515) translate(96.41710069444444 52.46527777777778)"/><use xlink:href="#m" transform="matrix(1,0,0,1,196.12595818538693,-747.1320772952515) translate(147.69748263888889 52.46527777777778)"/><path d="M811.13-702.13c0 24.85-44.78 45-100 45-55.23 0-100-20.15-100-45 0-24.86 44.77-45 100-45 55.22 0 100 20.14 100 45z" stroke="#fcce14" stroke-width="2" fill="#fff3d9"/><use xlink:href="#n" transform="matrix(1,0,0,1,616.1259581853868,-742.1320772952515) translate(18.87110243055555 49.02777777777778)"/><use xlink:href="#o" transform="matrix(1,0,0,1,616.1259581853868,-742.1320772952515) translate(111.167109375 49.02777777777778)"/><path d="M531.13-850.63v42.5a6 6 0 0 1-6 6h-218a6 6 0 0 0-6 6v26.6" stroke="#3a414a" fill="none"/><path d="M531.6-850.62h-.95v-.5h.95z" stroke="#3a414a" stroke-width=".05" fill="#3a414a"/><path d="M301.13-754.75l-4.64-14.27h9.26z" stroke="#3a414a" fill="#3a414a"/><path d="M566.3-850.63v48.38a6 6 0 0 0 6 6h79.96a6 6 0 0 1 6 6v32.5" stroke="#3a414a" fill="none"/><path d="M566.8-850.62h-.96v-.5h.95z" stroke="#3a414a" stroke-width=".05" fill="#3a414a"/><path d="M658.26-743l-4.63-14.26h9.27z" stroke="#3a414a" fill="#3a414a"/><path d="M351.13-494.97c0 24.85-49.25 45-110 45s-110-20.15-110-45c0-24.86 49.25-45 110-45s110 20.14 110 45z" stroke="#fcce14" stroke-width="2" fill="#fff3d9"/><use xlink:href="#p" transform="matrix(1,0,0,1,136.12595818538705,-534.9721883725905) translate(19.745668402777778 49.02777777777778)"/><use xlink:href="#q" transform="matrix(1,0,0,1,136.12595818538705,-534.9721883725905) translate(106.64888020833334 49.02777777777778)"/><path d="M301.13-650.63v48.58a6 6 0 0 1-6 6h-48a6 6 0 0 0-6 6v32.7" stroke="#3a414a" fill="none"/><path d="M301.12-651.13h.48v.5h-.95v-.5z" stroke="#3a414a" stroke-width=".05" fill="#3a414a"/><path d="M241.13-542.6l-4.64-14.26h9.26z" stroke="#3a414a" fill="#3a414a"/><path d="M611.13-492.8c0 26.03-44.78 47.15-100 47.15-55.23 0-100-21.12-100-47.16 0-26.06 44.77-47.17 100-47.17 55.22 0 100 21.1 100 47.16z" stroke="#fcce14" stroke-width="2" fill="#fff3d9"/><use xlink:href="#r" transform="matrix(1,0,0,1,416.1259581853868,-534.9721883725905) translate(7.6030815972222285 50.74652777777778)"/><use xlink:href="#s" transform="matrix(1,0,0,1,416.1259581853868,-534.9721883725905) translate(111.65039062500001 50.74652777777778)"/><path d="M659.03-662.22v54.95a6 6 0 0 1-6 6H495.5a6 6 0 0 0-6 6v39.07" stroke="#3a414a" fill="none"/><path d="M659.5-662.6v.4h-.94v-.65z" stroke="#3a414a" stroke-width=".05" fill="#3a414a"/><path d="M489.5-541.43l-4.64-14.27h9.27z" stroke="#3a414a" fill="#3a414a"/><path d="M431.13-324.97c0 22.1-44.78 40-100 40-55.23 0-100-17.9-100-40s44.77-40 100-40c55.22 0 100 17.9 100 40z" stroke="#fcce14" stroke-width="2" fill="#fff3d9"/><use xlink:href="#r" transform="matrix(1,0,0,1,236.12595818538693,-359.9721883725905) translate(22.408428819444435 43.40277777777778)"/><use xlink:href="#t" transform="matrix(1,0,0,1,236.12595818538693,-359.9721883725905) translate(126.45573784722222 43.40277777777778)"/><path d="M241.13-448.47v36.04a6 6 0 0 0 6 6h46.33a6 6 0 0 1 6 6v20.16" stroke="#3a414a" fill="none"/><path d="M241.12-448.97h.48v.5h-.95v-.5z" stroke="#3a414a" stroke-width=".05" fill="#3a414a"/><path d="M299.46-365.5l-4.63-14.27h9.27z" stroke="#3a414a" fill="#3a414a"/><path d="M460.14-450.74v37.85a6 6 0 0 1-6 6h-76.7a6 6 0 0 0-6 6v21.97" stroke="#3a414a" fill="none"/><path d="M460.62-451.1v.37h-.95v-.65z" stroke="#3a414a" stroke-width=".05" fill="#3a414a"/><path d="M371.44-364.16l-4.63-14.26h9.28z" stroke="#3a414a" fill="#3a414a"/><path d="M331.13-366.47v-40.1a6 6 0 0 0-6-6h-8.3a6 6 0 0 1-6-6v-24.2" stroke="#3a414a" fill="none"/><path d="M331.6-365.96h-.95v-.53h.95z" stroke="#3a414a" stroke-width=".05" fill="#3a414a"/><path d="M310.83-457.53l4.64 14.27h-9.27z" stroke="#3a414a" fill="#3a414a"/><path d="M752.6-659.7v82.03a6 6 0 0 0 6 6h48a6 6 0 0 1 6 6v66.15" stroke="#3a414a" fill="none"/><path d="M753.07-659.7h-.95v-.4l.95-.2z" stroke="#3a414a" stroke-width=".05" fill="#3a414a"/><path d="M812.6-484.75l-4.63-14.27h9.27z" stroke="#3a414a" fill="#3a414a"/><path d="M412.63-702.13h33.5a6 6 0 0 1 6 6v58a6 6 0 0 0 6 6h167a6 6 0 0 1 6 6v507a6 6 0 0 0 6 6h64.47a6 6 0 0 1 6 6v17.6" stroke="#3a414a" fill="none"/><path d="M412.64-701.66h-.52v-.95h.52z" stroke="#3a414a" stroke-width=".05" fill="#3a414a"/><path d="M707.6-74.75l-4.63-14.27h9.27z" stroke="#3a414a" fill="#3a414a"/><path d="M431.13-192.13c0 22.1-44.78 40-100 40-55.23 0-100-17.9-100-40s44.77-40 100-40c55.22 0 100 17.9 100 40z" stroke="#fcce14" stroke-width="2" fill="#fff3d9"/><use xlink:href="#u" transform="matrix(1,0,0,1,236.12595818538693,-227.13207729525152) translate(48.504348958333324 25.90277777777778)"/><use xlink:href="#v" transform="matrix(1,0,0,1,236.12595818538693,-227.13207729525152) translate(52.00369791666667 58.16840277777778)"/><path d="M331.13-283.47v33.95" stroke="#3a414a" fill="none"/><path d="M331.12-283.97h.48v.5h-.95v-.5z" stroke="#3a414a" stroke-width=".05" fill="#3a414a"/><path d="M331.13-234.75l-4.64-14.27h9.26z" stroke="#3a414a" fill="#3a414a"/><path d="M-368.87-272.13c0 22.1-44.78 40-100 40-55.23 0-100-17.9-100-40s44.77-40 100-40c55.22 0 100 17.9 100 40z" stroke="#fcce14" stroke-width="2" fill="#fff3d9"/><use xlink:href="#n" transform="matrix(1,0,0,1,-563.8740418146131,-307.1320772952515) translate(24.06315972222222 43.40277777777778)"/><use xlink:href="#w" transform="matrix(1,0,0,1,-563.8740418146131,-307.1320772952515) translate(116.35916666666667 43.40277777777778)"/><path d="M-68.87-93.63v-172.5a6 6 0 0 0-6-6H-351.5" stroke="#3a414a" fill="none"/><path d="M-68.4-93.13h-.95v-.52h.95z" stroke="#3a414a" stroke-width=".05" fill="#3a414a"/><path d="M-366.26-272.13l14.27-4.64v9.27z" stroke="#3a414a" fill="#3a414a"/><path d="M229.63-192.13h-72.5a6 6 0 0 0-6 6v148a6 6 0 0 1-6 6H28.5" stroke="#3a414a" fill="none"/><path d="M230.13-192.14v.48h-.52v-.95h.54z" stroke="#3a414a" stroke-width=".05" fill="#3a414a"/><path d="M13.74-32.13L28-36.77v9.27z" stroke="#3a414a" fill="#3a414a"/><path d="M131.13-332.13c0 22.1-44.78 40-100 40-55.23 0-100-17.9-100-40s44.77-40 100-40c55.22 0 100 17.9 100 40z" stroke="#fcce14" stroke-width="2" fill="#fff3d9"/><use xlink:href="#x" transform="matrix(1,0,0,1,-63.874041814613065,-367.1320772952515) translate(20.032126736111106 43.40277777777778)"/><use xlink:href="#y" transform="matrix(1,0,0,1,-63.874041814613065,-367.1320772952515) translate(102.51910590277778 43.40277777777778)"/><path d="M-26.3-93.63v-92.57a6 6 0 0 1 6-6H19.9a6 6 0 0 0 6-6v-76.68" stroke="#3a414a" fill="none"/><path d="M-25.82-93.13h-.95v-.52h.95z" stroke="#3a414a" stroke-width=".05" fill="#3a414a"/><path d="M25.88-289.64l4.64 14.26h-9.27z" stroke="#3a414a" fill="#3a414a"/><path d="M-70.37-332.13h-182.5a6 6 0 0 0-6 6v246a6 6 0 0 1-6 6h-46.62" stroke="#3a414a" fill="none"/><path d="M-69.87-332.14v.48h-.52v-.95h.54z" stroke="#3a414a" stroke-width=".05" fill="#3a414a"/><path d="M-326.26-74.13l14.27-4.64v9.27z" stroke="#3a414a" fill="#3a414a"/><path d="M-248.87 267.87c0 22.1-44.78 40-100 40-55.23 0-100-17.9-100-40s44.77-40 100-40c55.22 0 100 17.9 100 40z" stroke="#fcce14" stroke-width="2" fill="#fff3d9"/><use xlink:href="#z" transform="matrix(1,0,0,1,-443.87404181461307,232.86792270474848) translate(64.0208420138889 25.90277777777778)"/><use xlink:href="#A" transform="matrix(1,0,0,1,-443.87404181461307,232.86792270474848) translate(37.214201388888895 58.16840277777778)"/><path d="M-468.87-230.63v101.1" stroke="#3a414a" fill="none"/><path d="M-468.88-231.13h.48v.5h-.95v-.5z" stroke="#3a414a" stroke-width=".05" fill="#3a414a"/><path d="M-468.87-114.75l-4.64-14.27h9.26z" stroke="#3a414a" fill="#3a414a"/><path d="M-150.37-32.13h-33.5a6 6 0 0 0-6 6v68a6 6 0 0 1-6 6h-147a6 6 0 0 0-6 6v156.6" stroke="#3a414a" fill="none"/><path d="M-149.87-31.66h-.52v-.95h.53z" stroke="#3a414a" stroke-width=".05" fill="#3a414a"/><path d="M-348.87 225.25l-4.64-14.27h9.26z" stroke="#3a414a" fill="#3a414a"/><path d="M-289.87 234.07v-96.35a6 6 0 0 1 6-6h173.7a6 6 0 0 0 6-6V45.25" stroke="#3a414a" fill="none"/><path d="M-289.4 234.7l-.94-.26v-.38h.95z" stroke="#3a414a" stroke-width=".05" fill="#3a414a"/><path d="M-104.16 30.5l4.63 14.25h-9.27z" stroke="#3a414a" fill="#3a414a"/><path d="M-450.37 267.87h-14.25a6 6 0 0 1-6-6V-4.75" stroke="#3a414a" fill="none"/><path d="M-449.87 267.86v.48h-.52v-.95h.54z" stroke="#3a414a" stroke-width=".05" fill="#3a414a"/><path d="M-470.6-19.5L-466-5.26h-9.27z" stroke="#3a414a" fill="#3a414a"/><path d="M-26.7 29.37v79.2a6 6 0 0 0 6 6h11.86a6 6 0 0 1 6 6v61.98a6 6 0 0 0 6 6h17.6" stroke="#3a414a" fill="none"/><path d="M-26.2 29.38h-.96v-.5h.95z" stroke="#3a414a" stroke-width=".05" fill="#3a414a"/><path d="M35.54 188.55l-14.27 4.63v-9.27z" stroke="#3a414a" fill="#3a414a"/><path d="M32.63-532.13h33.5a6 6 0 0 1 6 6v355.92a6 6 0 0 1-6 6h-70a6 6 0 0 0-6 6v355.9a6 6 0 0 0 6 6h17.6" stroke="#3a414a" fill="none"/><path d="M32.64-531.66h-.53l.03-.47v-.47h.5z" stroke="#3a414a" stroke-width=".05" fill="#3a414a"/><path d="M28.5 203.7l-14.26 4.64v-9.27z" stroke="#3a414a" fill="#3a414a"/><path d="M31.13-532.13c0 22.1-44.78 40-100 40-55.23 0-100-17.9-100-40s44.77-40 100-40c55.22 0 100 17.9 100 40z" stroke="#fcce14" stroke-width="2" fill="#fff3d9"/><use xlink:href="#B" transform="matrix(1,0,0,1,-163.87404181461307,-567.1320772952515) translate(11.308168402777776 43.40277777777778)"/><use xlink:href="#C" transform="matrix(1,0,0,1,-163.87404181461307,-567.1320772952515) translate(94.13151909722221 43.40277777777778)"/><path d="M-207.37-652.13h78.77a6 6 0 0 1 6 6v62.9" stroke="#3a414a" fill="none"/><path d="M-207.36-651.66h-.5v-.95h.5z" stroke="#3a414a" stroke-width=".05" fill="#3a414a"/><path d="M-122.6-568.47l-4.63-14.27h9.27z" stroke="#3a414a" fill="#3a414a"/><g stroke="#54c45e" stroke-width="2"><path d="M125.13 307.87a6 6 0 0 1 6 6v78a6 6 0 0 1-6 6h-228a6 6 0 0 1-6-6v-78a6 6 0 0 1 6-6z" fill="#e3fae3"/><path d="M131.13 316.87h-240m240 72h-240" fill="none"/></g><use xlink:href="#D" transform="matrix(1,-2.4492935982947064e-16,2.4492935982947064e-16,1,-103.87404181461298,324.1179227047484) translate(31.970486111111114 37.083767361111114)"/><use xlink:href="#E" transform="matrix(1,-2.4492935982947064e-16,2.4492935982947064e-16,1,-103.87404181461298,324.1179227047484) translate(98.66970486111111 37.083767361111114)"/><path d="M131.13 245.2v24.6a6 6 0 0 1-6 6h-108a6 6 0 0 0-6 6v8.68" stroke="#3a414a" fill="none"/><path d="M131.12 244.7h.48v.52h-.95v-.53z" stroke="#3a414a" stroke-width=".05" fill="#3a414a"/><path d="M11.13 305.25L6.5 290.98h9.26z" stroke="#3a414a" fill="#3a414a"/><path d="M-228.87-363.47v710.34a6 6 0 0 0 6 6h96.6" stroke="#3a414a" fill="none"/><path d="M-228.88-363.97h.48v.5h-.95v-.5z" stroke="#3a414a" stroke-width=".05" fill="#3a414a"/><path d="M-111.5 352.87l-14.26 4.63v-9.27z" stroke="#3a414a" fill="#3a414a"/><path d="M-128.87-404.97c0 22.1-44.78 40-100 40-55.23 0-100-17.9-100-40s44.77-40 100-40c55.22 0 100 17.9 100 40z" stroke="#fcce14" stroke-width="2" fill="#fff3d9"/><use xlink:href="#F" transform="matrix(1,0,0,1,-323.87404181461307,-439.9721883725905) translate(19.240026041666663 43.40277777777778)"/><use xlink:href="#G" transform="matrix(1,0,0,1,-323.87404181461307,-439.9721883725905) translate(98.59115451388888 43.40277777777778)"/><path d="M511.13 387.87c0 22.1-44.78 40-100 40-55.23 0-100-17.9-100-40s44.77-40 100-40c55.22 0 100 17.9 100 40z" stroke="#fcce14" stroke-width="2" fill="#fff3d9"/><use xlink:href="#H" transform="matrix(1,0,0,1,316.12595818538693,352.8679227047485) translate(62.246753472222224 25.90277777777778)"/><use xlink:href="#I" transform="matrix(1,0,0,1,316.12595818538693,352.8679227047485) translate(33.70400173611111 58.16840277777778)"/><use xlink:href="#J" transform="matrix(1,0,0,1,316.12595818538693,352.8679227047485) translate(104.29861979166667 58.16840277777778)"/><path d="M-265.03-590.63v66.08a6 6 0 0 0 6 6h24.16a6 6 0 0 1 6 6v50.2" stroke="#3a414a" fill="none"/><path d="M-264.55-590.62h-.95v-.5h.95z" stroke="#3a414a" stroke-width=".05" fill="#3a414a"/><path d="M-228.87-447.6l-4.64-14.26h9.26z" stroke="#3a414a" fill="#3a414a"/><path d="M-68.87-573.63v-197.5a6 6 0 0 0-6-6h-128a6 6 0 0 1-6-6v-181.62" stroke="#3a414a" fill="none"/><path d="M-68.4-573.12h-.95v-.52h.95z" stroke="#3a414a" stroke-width=".05" fill="#3a414a"/><path d="M-208.87-979.5l4.63 14.25h-9.27z" stroke="#3a414a" fill="#3a414a"/><path d="M-368.87-852.13c0 22.1-44.78 40-100 40-55.23 0-100-17.9-100-40s44.77-40 100-40c55.22 0 100 17.9 100 40z" stroke="#fcce14" stroke-width="2" fill="#fff3d9"/><use xlink:href="#K" transform="matrix(1,0,0,1,-563.8740418146131,-887.1320772952515) translate(9.132604166666662 43.40277777777778)"/><use xlink:href="#L" transform="matrix(1,0,0,1,-563.8740418146131,-887.1320772952515) translate(85.27192708333334 43.40277777777778)"/><g stroke="#54c45e" stroke-width="2"><path d="M-94.87-1072.13a6 6 0 0 1 6 6v78a6 6 0 0 1-6 6h-228a6 6 0 0 1-6-6v-78a6 6 0 0 1 6-6z" fill="#e3fae3"/><path d="M-88.87-1063.13h-240m240 72h-240" fill="none"/></g><use xlink:href="#M" transform="matrix(1,-2.4492935982947064e-16,2.4492935982947064e-16,1,-323.8740418146131,-1055.8820772952517) translate(13.128255208333343 37.083767361111114)"/><use xlink:href="#j" transform="matrix(1,-2.4492935982947064e-16,2.4492935982947064e-16,1,-323.8740418146131,-1055.8820772952517) translate(117.51193576388889 37.083767361111114)"/><path d="M-288.87-713.63v-43.47a6 6 0 0 0-6-6h-137.4a6 6 0 0 1-6-6v-27.58" stroke="#3a414a" fill="none"/><path d="M-288.4-713.13h-.95v-.5h.95z" stroke="#3a414a" stroke-width=".05" fill="#3a414a"/><path d="M-438.28-811.44l4.63 14.26h-9.27z" stroke="#3a414a" fill="#3a414a"/><path d="M-468.87-893.63v-132.5a6 6 0 0 1 6-6h116.6" stroke="#3a414a" fill="none"/><path d="M-468.4-893.12h-.95v-.52h.95z" stroke="#3a414a" stroke-width=".05" fill="#3a414a"/><path d="M-331.5-1032.13l-14.26 4.63v-9.27z" stroke="#3a414a" fill="#3a414a"/><path d="M341.13 567.87c0 22.1-44.78 40-100 40-55.23 0-100-17.9-100-40s44.77-40 100-40c55.22 0 100 17.9 100 40z" stroke="#fcce14" stroke-width="2" fill="#fff3d9"/><use xlink:href="#N" transform="matrix(1,0,0,1,146.125958185387,532.8679227047485) translate(18.616536458333343 26.95095486111111)"/><use xlink:href="#O" transform="matrix(1,0,0,1,146.125958185387,532.8679227047485) translate(79.72764756944444 26.95095486111111)"/><use xlink:href="#P" transform="matrix(1,0,0,1,146.125958185387,532.8679227047485) translate(59.32834201388889 59.21657986111111)"/><path d="M12.63-9.94h222.5a6 6 0 0 1 6 6v385.8a6 6 0 0 0 6 6h46.6" stroke="#3a414a" fill="none"/><path d="M12.64-9.46h-.5v-.95h.5z" stroke="#3a414a" stroke-width=".05" fill="#3a414a"/><path d="M308.5 387.87l-14.26 4.63v-9.27z" stroke="#3a414a" fill="#3a414a"/><path d="M-145.04 29.03v532.84a6 6 0 0 0 6 6h262.78" stroke="#3a414a" fill="none"/><path d="M-145.04 28.53l.48.1v.4h-.95v-.7z" stroke="#3a414a" stroke-width=".05" fill="#3a414a"/><path d="M138.5 567.87l-14.26 4.63v-9.27z" stroke="#3a414a" fill="#3a414a"/><path d="M411.13 429.37v42.5a6 6 0 0 1-6 6h-158a6 6 0 0 0-6 6v26.6" stroke="#3a414a" fill="none"/><path d="M411.12 428.87h.48v.5h-.95v-.5z" stroke="#3a414a" stroke-width=".05" fill="#3a414a"/><path d="M241.13 525.25l-4.64-14.27h9.26z" stroke="#3a414a" fill="#3a414a"/><path d="M171.13 727.87c0 22.1-44.78 40-100 40-55.23 0-100-17.9-100-40s44.77-40 100-40c55.22 0 100 17.9 100 40z" stroke="#fcce14" stroke-width="2" fill="#fff3d9"/><use xlink:href="#Q" transform="matrix(1,0,0,1,-23.874041814613065,692.8679227047485) translate(24.952916666666663 43.40277777777778)"/><use xlink:href="#R" transform="matrix(1,0,0,1,-23.874041814613065,692.8679227047485) translate(114.74241319444445 43.40277777777778)"/><path d="M241.13 609.37v32.5a6 6 0 0 1-6 6h-158a6 6 0 0 0-6 6v16.6" stroke="#3a414a" fill="none"/><path d="M241.12 608.87h.48v.5h-.95v-.5z" stroke="#3a414a" stroke-width=".05" fill="#3a414a"/><path d="M71.13 685.25l-4.64-14.27h9.26z" stroke="#3a414a" fill="#3a414a"/><path d="M471.13 747.87c0 22.1-44.78 40-100 40-55.23 0-100-17.9-100-40s44.77-40 100-40c55.22 0 100 17.9 100 40z" stroke="#fcce14" stroke-width="2" fill="#fff3d9"/><use xlink:href="#Q" transform="matrix(1,0,0,1,276.12595818538705,712.8679227047485) translate(24.952916666666663 43.40277777777778)"/><use xlink:href="#R" transform="matrix(1,0,0,1,276.12595818538705,712.8679227047485) translate(114.74241319444445 43.40277777777778)"/><path d="M551.13 887.87c0 22.1-44.78 40-100 40-55.23 0-100-17.9-100-40s44.77-40 100-40c55.22 0 100 17.9 100 40z" stroke="#fcce14" stroke-width="2" fill="#fff3d9"/><use xlink:href="#S" transform="matrix(1,0,0,1,356.12595818538693,852.8679227047485) translate(52.692717013888895 25.90277777777778)"/><use xlink:href="#T" transform="matrix(1,0,0,1,356.12595818538693,852.8679227047485) translate(33.47071180555558 58.16840277777778)"/><path d="M271.13 912.9c0 22.08-44.78 40-100 40-55.23 0-100-17.92-100-40 0-22.1 44.77-40 100-40 55.22 0 100 17.9 100 40z" stroke="#fcce14" stroke-width="2" fill="#fff3d9"/><use xlink:href="#U" transform="matrix(1,0,0,1,76.12595818538705,877.8900105545147) translate(24.697925347222235 43.40277777777778)"/><use xlink:href="#V" transform="matrix(1,0,0,1,76.12595818538705,877.8900105545147) translate(86.47092881944445 43.40277777777778)"/><path d="M471.13 1048.68c0 22.1-44.78 40-100 40-55.23 0-100-17.9-100-40s44.77-40 100-40c55.22 0 100 17.9 100 40z" stroke="#fcce14" stroke-width="2" fill="#fff3d9"/><use xlink:href="#W" transform="matrix(1,0,0,1,276.12595818538705,1013.6770526635205) translate(52.76867187500001 25.90277777777778)"/><use xlink:href="#X" transform="matrix(1,0,0,1,276.12595818538705,1013.6770526635205) translate(46.133472222222224 58.16840277777778)"/><path d="M172.63 727.87h43.5a5 5 0 0 1 5 5v10a5 5 0 0 0 5 5h29.5" stroke="#3a414a" fill="none"/><path d="M172.64 728.34h-.53l.03-.47v-.47h.5z" stroke="#3a414a" stroke-width=".05" fill="#3a414a"/><path d="M269.13 747.87l-13 7.5v-15z" stroke="#3a414a" fill="#3a414a"/><path d="M371.13 789.37v22.97a6 6 0 0 0 6 6h46.94a6 6 0 0 1 6 6v8.98" stroke="#3a414a" fill="none"/><path d="M371.12 788.87h.48v.5h-.95v-.5z" stroke="#3a414a" stroke-width=".05" fill="#3a414a"/><path d="M430.07 846.8l-7.5-12.98h15z" stroke="#3a414a" fill="#3a414a"/><path d="M349.63 887.87h-22.1a18.77 18.77 0 0 0-18.76 18.77A18.77 18.77 0 0 1 290 925.4h-8.1" stroke="#3a414a" fill="none"/><path d="M350.13 887.86v.48h-.52v-.95h.54z" stroke="#3a414a" stroke-width=".05" fill="#3a414a"/><path d="M268.4 925.4l13-7.5v15z" stroke="#3a414a" fill="#3a414a"/><path d="M218.25 949.66v8.1a24 24 0 0 0 24 24h55.53a18.1 18.1 0 0 1 18.1 18.1" stroke="#3a414a" fill="none"/><path d="M218.72 949.67h-.95v-.4l.95-.2z" stroke="#3a414a" stroke-width=".05" fill="#3a414a"/><path d="M315.87 1013.34l-7.5-13h15z" stroke="#3a414a" fill="#3a414a"/><path d="M294.4 1075.92v15.5a24 24 0 0 1-24 24h-440.6a24 24 0 0 1-24-24V960.76a24 24 0 0 0-24-24h-1.52" stroke="#3a414a" fill="none"/><path d="M294.87 1075.63v.3h-.95v-.73z" stroke="#3a414a" stroke-width=".05" fill="#3a414a"/><path d="M-233.2 936.76l12.98-7.5v15z" stroke="#3a414a" fill="#3a414a"/><path d="M133.97 951.52v15.5a24 24 0 0 1-24 24h-168a24 24 0 0 1-24-24v-75.5a24 24 0 0 0-24-24h-125.8a24 24 0 0 0-24 24v1.5" stroke="#3a414a" fill="none"/><path d="M134.44 951.1v.43h-.95v-.6z" stroke="#3a414a" stroke-width=".05" fill="#3a414a"/><path d="M-255.82 906.5l-7.5-12.98h15z" stroke="#3a414a" fill="#3a414a"/><path d="M12.63-32.13h652.15a24 24 0 0 1 24 24v1032.8a24 24 0 0 1-24 24H486.62" stroke="#3a414a" fill="none"/><path d="M12.64-31.66h-.5v-.95h.5z" stroke="#3a414a" stroke-width=".05" fill="#3a414a"/><path d="M473.13 1048.68l13-7.5v15z" stroke="#3a414a" fill="#3a414a"/><g stroke="#54c45e" stroke-width="2"><path d="M-198.58 682.87a6 6 0 0 1 6 6v93a6 6 0 0 1-6 6h-228a6 6 0 0 1-6-6v-93a6 6 0 0 1 6-6z" fill="#e3fae3"/><path d="M-192.58 693.37h-240m240 84h-240" fill="none"/></g><g><use xlink:href="#Y" transform="matrix(1,-2.4492935982947064e-16,2.4492935982947064e-16,1,-427.57757899875077,700.9929227047486) translate(16.3671875 42.583767361111114)"/><use xlink:href="#E" transform="matrix(1,-2.4492935982947064e-16,2.4492935982947064e-16,1,-427.57757899875077,700.9929227047486) translate(114.27300347222221 42.583767361111114)"/></g><path d="M-30.37 727.87h-76.6a3.75 3.75 0 0 0-3.76 3.75 3.75 3.75 0 0 1-3.75 3.75h-62.6" stroke="#3a414a" fill="none"/><path d="M-29.87 727.86v.48h-.52v-.95h.54z" stroke="#3a414a" stroke-width=".05" fill="#3a414a"/><path d="M-190.58 735.37l13-7.5v15z" stroke="#3a414a" fill="#3a414a"/><path d="M364.84 865.95a18.14 18.14 0 0 0-18.14-18.14H-45.88a24 24 0 0 1-24-24v-34.2a24 24 0 0 0-24-24h-83.22" stroke="#3a414a" fill="none"/><path d="M365.3 866.13l-.94.65v-.84h.95z" stroke="#3a414a" stroke-width=".05" fill="#3a414a"/><path d="M-190.58 765.6l13-7.5v15z" stroke="#3a414a" fill="#3a414a"/><path d="M-150.37 5.96h-28.22a11.3 11.3 0 0 0-11.27 11.28 11.3 11.3 0 0 1-11.3 11.3h-453.58a24 24 0 0 0-24 24v972.14a24 24 0 0 0 24 24h910.4" stroke="#3a414a" fill="none"/><path d="M-149.87 6.43h-.52v-.95h.53z" stroke="#3a414a" stroke-width=".05" fill="#3a414a"/><path d="M269.13 1048.68l-13 7.5v-15z" stroke="#3a414a" fill="#3a414a"/><path d="M231.13 203.7c0 22.1-44.78 40-100 40-55.23 0-100-17.9-100-40s44.77-40 100-40c55.22 0 100 17.9 100 40z" stroke="#fcce14" stroke-width="2" fill="#fff3d9"/><g><use xlink:href="#Z" transform="matrix(1,0,0,1,36.125958185386935,168.70467379457114) translate(18.91993055555555 43.40277777777778)"/><use xlink:href="#G" transform="matrix(1,0,0,1,36.125958185386935,168.70467379457114) translate(98.91125 43.40277777777778)"/></g><g stroke="#54c45e" stroke-width="2"><path d="M-241.2 908.5a6 6 0 0 1 6 6v78a6 6 0 0 1-6 6h-228a6 6 0 0 1-6-6v-78a6 6 0 0 1 6-6z" fill="#e3fae3"/><path d="M-235.2 917.5h-240m240 72h-240" fill="none"/></g><g><use xlink:href="#aa" transform="matrix(1,-2.4492935982947064e-16,2.4492935982947064e-16,1,-470.2131722266755,924.7582987269328) translate(30.022786458333343 37.083767361111114)"/><use xlink:href="#E" transform="matrix(1,-2.4492935982947064e-16,2.4492935982947064e-16,1,-470.2131722266755,924.7582987269328) translate(100.6174045138889 37.083767361111114)"/></g><defs><path d="M180 0v-1490h510c348 0 508 209 508 474 0 266-160 477-507 477H370V0H180zm190-706h312c236 0 327-133 327-310 0-176-91-307-329-307H370v617" id="ab"/><path d="M471 26C259 26 90-98 90-318c0-256 228-303 435-329 202-27 287-16 287-108 0-139-79-219-234-219-161 0-248 86-283 164l-173-57c86-203 278-265 451-265 150 0 419 46 419 395V0H815v-152h-12C765-73 660 26 471 26zm31-159c199 0 310-134 310-271v-155c-30 35-226 55-295 64-131 17-246 59-246 186 0 116 97 176 231 176" id="ac"/><path d="M538 24C308 24 148-78 108-271l171-41c32 123 123 178 257 178 156 0 256-77 256-169 0-77-54-128-164-154l-186-44c-203-48-300-148-300-305 0-192 176-326 414-326 230 0 351 112 402 269l-163 42c-31-80-94-158-238-158-133 0-233 69-233 162 0 83 57 129 188 160l169 40c203 48 298 149 298 302 0 196-179 339-441 339" id="ad"/><path d="M338-670V0H158v-1118h173l1 207c72-158 192-221 342-221 226 0 378 139 378 422V0H872v-695c0-172-96-275-252-275-161 0-282 109-282 300" id="ae"/><path d="M611 442c-248 0-391-105-460-228l146-94c47 65 117 165 314 165 178 0 307-82 307-266v-224h-17C863-141 792-18 576-18c-268 0-472-195-472-546 0-346 197-568 476-568 216 0 288 133 326 193h17v-179h175V29c0 289-215 413-487 413zm-5-620c203 0 314-146 314-390 0-237-108-403-314-403-213 0-319 180-319 403 0 230 109 390 319 390" id="af"/><path d="M628 24c-324 0-524-230-524-574 0-343 198-582 503-582 237 0 487 146 487 559v75H286c9 234 145 362 343 362 132 0 231-58 273-172l174 48C1024-91 857 24 628 24zM287-650h624c-17-190-120-322-304-322-192 0-309 151-320 322" id="ag"/><path d="M158 0v-1118h174v172h12c41-113 157-188 290-188 26 0 70 2 91 3v181c-11-2-60-10-108-10-161 0-279 109-279 260V0H158" id="ah"/><g id="a"><use transform="matrix(0.010850694444444444,0,0,0.010850694444444444,0,0)" xlink:href="#ab"/><use transform="matrix(0.010850694444444444,0,0,0.010850694444444444,14.192708333333332,0)" xlink:href="#ac"/><use transform="matrix(0.010850694444444444,0,0,0.010850694444444444,26.671006944444443,0)" xlink:href="#ad"/><use transform="matrix(0.010850694444444444,0,0,0.010850694444444444,38.400607638888886,0)" xlink:href="#ad"/><use transform="matrix(0.010850694444444444,0,0,0.010850694444444444,50.13020833333333,0)" xlink:href="#ac"/><use transform="matrix(0.010850694444444444,0,0,0.010850694444444444,62.60850694444444,0)" xlink:href="#ae"/><use transform="matrix(0.010850694444444444,0,0,0.010850694444444444,75.73784722222221,0)" xlink:href="#af"/><use transform="matrix(0.010850694444444444,0,0,0.010850694444444444,89.36631944444441,0)" xlink:href="#ag"/><use transform="matrix(0.010850694444444444,0,0,0.010850694444444444,102.32204861111111,0)" xlink:href="#ah"/><use transform="matrix(0.010850694444444444,0,0,0.010850694444444444,110.68793402777777,0)" xlink:href="#ad"/></g><path d="M52 0l541-1490h220L1361 0h-200l-149-416H398L254 0H52zm404-582h497c-103-290-145-390-251-756-108 377-145 460-246 756" id="ai"/><path d="M577 24c-279 0-473-224-473-580 0-354 195-576 474-576 218 0 287 134 324 193h14v-551h180V0H922v-173h-20C865-111 790 24 577 24zm27-161c203 0 314-172 314-421 0-247-108-413-314-413-212 0-317 181-317 413 0 235 108 421 317 421" id="aj"/><path d="M158 0v-1118h175l1 205c55-151 181-225 313-225 147 0 245 90 285 228 53-141 190-228 352-228 194 0 352 125 352 384V0h-181v-749c0-161-105-225-225-225-151 0-243 103-243 244V0H807v-767c0-124-93-207-219-207-131 0-250 92-250 270V0H158" id="ak"/><path d="M158 0v-1118h180V0H158zm91-1301c-68 0-125-53-125-119s57-119 125-119c69 0 126 53 126 119s-57 119-126 119" id="al"/><g id="b"><use transform="matrix(0.010850694444444444,0,0,0.010850694444444444,0,0)" xlink:href="#ai"/><use transform="matrix(0.010850694444444444,0,0,0.010850694444444444,15.33203125,0)" xlink:href="#aj"/><use transform="matrix(0.010850694444444444,0,0,0.010850694444444444,28.938802083333332,0)" xlink:href="#ak"/><use transform="matrix(0.010850694444444444,0,0,0.010850694444444444,48.404947916666664,0)" xlink:href="#al"/><use transform="matrix(0.010850694444444444,0,0,0.010850694444444444,53.78689236111111,0)" xlink:href="#ae"/></g><path d="M657 26c-323 0-524-166-541-416h195c15 169 171 246 346 246 202 0 356-106 356-265 5-203-294-238-475-293-239-73-380-191-380-389 0-252 224-419 512-419 294 0 499 171 508 396H992c-17-145-151-228-328-228-193 0-321 102-321 242 0 156 175 211 284 241l149 41c160 44 422 134 422 412 0 244-197 432-541 432" id="am"/><path d="M598-1118v154H368v674c0 100 37 144 132 144 23 0 62-6 92-12L629-6c-37 13-88 20-134 20-193 0-307-107-307-290v-688H20v-154h168v-266h180v266h230" id="an"/><path d="M678-1118v154H420V0H240v-964H20v-154h220v-149c0-194 155-293 318-293 85 0 141 18 168 30l-50 154c-19-6-47-17-97-17-111 0-159 58-159 166v109h258" id="ao"/><g id="c"><use transform="matrix(0.010850694444444444,0,0,0.010850694444444444,0,0)" xlink:href="#am"/><use transform="matrix(0.010850694444444444,0,0,0.010850694444444444,14.2578125,0)" xlink:href="#an"/><use transform="matrix(0.010850694444444444,0,0,0.010850694444444444,21.63628472222222,0)" xlink:href="#ac"/><use transform="matrix(0.010850694444444444,0,0,0.010850694444444444,34.11458333333333,0)" xlink:href="#ao"/><use transform="matrix(0.010850694444444444,0,0,0.010850694444444444,41.47135416666666,0)" xlink:href="#ao"/></g><path d="M98-1322v-168h1126v168H757V0H567v-1322H98" id="ap"/><g id="d"><use transform="matrix(0.010850694444444444,0,0,0.010850694444444444,0,0)" xlink:href="#ap"/><use transform="matrix(0.010850694444444444,0,0,0.010850694444444444,13.0859375,0)" xlink:href="#ah"/><use transform="matrix(0.010850694444444444,0,0,0.010850694444444444,21.451822916666664,0)" xlink:href="#ac"/><use transform="matrix(0.010850694444444444,0,0,0.010850694444444444,33.93012152777777,0)" xlink:href="#ae"/><use transform="matrix(0.010850694444444444,0,0,0.010850694444444444,47.05946180555556,0)" xlink:href="#ad"/><use transform="matrix(0.010850694444444444,0,0,0.010850694444444444,58.789062499999986,0)" xlink:href="#al"/><use transform="matrix(0.010850694444444444,0,0,0.010850694444444444,64.17100694444444,0)" xlink:href="#an"/></g><path d="M481 0L54-1118h197c107 314 236 620 325 951 87-331 217-637 324-951h197L670 0H481" id="aq"/><g id="e"><use transform="matrix(0.010850694444444444,0,0,0.010850694444444444,0,0)" xlink:href="#aj"/><use transform="matrix(0.010850694444444444,0,0,0.010850694444444444,13.606770833333332,0)" xlink:href="#ah"/><use transform="matrix(0.010850694444444444,0,0,0.010850694444444444,22.31987847222222,0)" xlink:href="#al"/><use transform="matrix(0.010850694444444444,0,0,0.010850694444444444,27.701822916666664,0)" xlink:href="#aq"/><use transform="matrix(0.010850694444444444,0,0,0.010850694444444444,39.75694444444444,0)" xlink:href="#ag"/><use transform="matrix(0.010850694444444444,0,0,0.010850694444444444,52.71267361111111,0)" xlink:href="#ah"/><use transform="matrix(0.010850694444444444,0,0,0.010850694444444444,61.07855902777778,0)" xlink:href="#ad"/></g><path d="M600 0L52-1490h200c166 485 304 806 458 1336 156-533 285-846 449-1336h202L819 0H600" id="ar"/><path d="M338-670V0H158v-1490h180v566c73-149 190-208 336-208 226 0 379 139 379 422V0H872v-695c0-172-96-275-252-275-161 0-282 109-282 300" id="as"/><path d="M613 24c-304 0-509-231-509-576 0-350 205-580 509-580 216 0 392 114 453 309l-173 49c-33-115-133-197-280-197-223 0-326 196-326 419 0 220 103 415 326 415 150 0 252-85 285-206l172 49C1010-95 832 24 613 24" id="at"/><path d="M338-1490V0H158v-1490h180" id="au"/><g id="f"><use transform="matrix(0.010850694444444444,0,0,0.010850694444444444,0,0)" xlink:href="#ar"/><use transform="matrix(0.010850694444444444,0,0,0.010850694444444444,14.20355902777778,0)" xlink:href="#ag"/><use transform="matrix(0.010850694444444444,0,0,0.010850694444444444,27.159288194444443,0)" xlink:href="#as"/><use transform="matrix(0.010850694444444444,0,0,0.010850694444444444,40.299479166666664,0)" xlink:href="#al"/><use transform="matrix(0.010850694444444444,0,0,0.010850694444444444,45.68142361111111,0)" xlink:href="#at"/><use transform="matrix(0.010850694444444444,0,0,0.010850694444444444,58.37673611111111,0)" xlink:href="#au"/><use transform="matrix(0.010850694444444444,0,0,0.010850694444444444,63.75868055555555,0)" xlink:href="#ag"/></g><path d="M645 0H180v-1490h484c435 0 692 280 692 742 0 466-257 748-711 748zM370-168h263c363 0 539-218 539-580 0-358-176-574-521-574H370v1154" id="av"/><path d="M677 24c-213 0-288-135-325-197h-20V0H158v-1490h180v551h14c37-59 106-193 324-193 279 0 474 222 474 576 0 356-194 580-473 580zm-27-161c209 0 317-186 317-421 0-232-105-413-317-413-206 0-314 166-314 413 0 249 111 421 314 421" id="aw"/><g id="g"><use transform="matrix(0.010850694444444444,0,0,0.010850694444444444,0,0)" xlink:href="#av"/><use transform="matrix(0.010850694444444444,0,0,0.010850694444444444,16.03732638888889,0)" xlink:href="#ac"/><use transform="matrix(0.010850694444444444,0,0,0.010850694444444444,28.515625,0)" xlink:href="#an"/><use transform="matrix(0.010850694444444444,0,0,0.010850694444444444,35.89409722222222,0)" xlink:href="#ac"/><use transform="matrix(0.010850694444444444,0,0,0.010850694444444444,48.37239583333333,0)" xlink:href="#aw"/><use transform="matrix(0.010850694444444444,0,0,0.010850694444444444,62.19618055555554,0)" xlink:href="#ac"/><use transform="matrix(0.010850694444444444,0,0,0.010850694444444444,74.67447916666666,0)" xlink:href="#ad"/><use transform="matrix(0.010850694444444444,0,0,0.010850694444444444,86.4040798611111,0)" xlink:href="#ag"/></g><path d="M763 24c-353 0-583-224-583-531v-983h190v968c0 214 149 370 393 370 243 0 391-156 391-370v-968h190v983c0 307-230 531-581 531" id="ax"/><g id="h"><use transform="matrix(0.010850694444444444,0,0,0.010850694444444444,0,0)" xlink:href="#ax"/><use transform="matrix(0.010850694444444444,0,0,0.010850694444444444,16.536458333333332,0)" xlink:href="#ad"/><use transform="matrix(0.010850694444444444,0,0,0.010850694444444444,28.266059027777775,0)" xlink:href="#ag"/><use transform="matrix(0.010850694444444444,0,0,0.010850694444444444,41.22178819444444,0)" xlink:href="#ah"/></g><g id="i"><use transform="matrix(0.010850694444444444,0,0,0.010850694444444444,0,0)" xlink:href="#ap"/><use transform="matrix(0.010850694444444444,0,0,0.010850694444444444,13.0859375,0)" xlink:href="#ah"/><use transform="matrix(0.010850694444444444,0,0,0.010850694444444444,21.451822916666664,0)" xlink:href="#ac"/><use transform="matrix(0.010850694444444444,0,0,0.010850694444444444,33.93012152777777,0)" xlink:href="#ae"/><use transform="matrix(0.010850694444444444,0,0,0.010850694444444444,47.05946180555556,0)" xlink:href="#ad"/><use transform="matrix(0.010850694444444444,0,0,0.010850694444444444,58.789062499999986,0)" xlink:href="#al"/><use transform="matrix(0.010850694444444444,0,0,0.010850694444444444,64.17100694444444,0)" xlink:href="#an"/></g><g id="j"><use transform="matrix(0.010850694444444444,0,0,0.010850694444444444,0,0)" xlink:href="#av"/><use transform="matrix(0.010850694444444444,0,0,0.010850694444444444,16.03732638888889,0)" xlink:href="#ac"/><use transform="matrix(0.010850694444444444,0,0,0.010850694444444444,28.515625,0)" xlink:href="#an"/><use transform="matrix(0.010850694444444444,0,0,0.010850694444444444,35.89409722222222,0)" xlink:href="#ac"/><use transform="matrix(0.010850694444444444,0,0,0.010850694444444444,48.37239583333333,0)" xlink:href="#aw"/><use transform="matrix(0.010850694444444444,0,0,0.010850694444444444,62.19618055555554,0)" xlink:href="#ac"/><use transform="matrix(0.010850694444444444,0,0,0.010850694444444444,74.67447916666666,0)" xlink:href="#ad"/><use transform="matrix(0.010850694444444444,0,0,0.010850694444444444,86.4040798611111,0)" xlink:href="#ag"/></g><path d="M158 418v-1536h174v179h20c37-59 106-193 324-193 279 0 474 222 474 576 0 356-194 580-473 580-213 0-288-135-325-197h-14v591H158zm492-555c209 0 317-186 317-421 0-232-105-413-317-413-206 0-314 166-314 413 0 249 111 421 314 421" id="ay"/><g id="k"><use transform="matrix(0.010850694444444444,0,0,0.010850694444444444,0,0)" xlink:href="#ax"/><use transform="matrix(0.010850694444444444,0,0,0.010850694444444444,16.536458333333332,0)" xlink:href="#ay"/><use transform="matrix(0.010850694444444444,0,0,0.010850694444444444,30.143229166666664,0)" xlink:href="#aj"/><use transform="matrix(0.010850694444444444,0,0,0.010850694444444444,43.75,0)" xlink:href="#ac"/><use transform="matrix(0.010850694444444444,0,0,0.010850694444444444,56.22829861111112,0)" xlink:href="#an"/><use transform="matrix(0.010850694444444444,0,0,0.010850694444444444,63.28125000000001,0)" xlink:href="#ag"/></g><path d="M789 20c-398 0-667-293-667-764 0-473 273-766 655-766 315 0 558 198 612 487h-196c-61-191-204-311-415-311-262 0-471 207-471 590 0 380 208 588 482 588 249 0 420-165 425-427H828v-166h572v163c0 370-256 606-611 606" id="az"/><g id="l"><use transform="matrix(0.010850694444444444,0,0,0.010850694444444444,0,0)" xlink:href="#az"/><use transform="matrix(0.010850694444444444,0,0,0.010850694444444444,16.57986111111111,0)" xlink:href="#ab"/><use transform="matrix(0.010850694444444444,0,0,0.010850694444444444,30.772569444444443,0)" xlink:href="#am"/></g><g id="m"><use transform="matrix(0.010850694444444444,0,0,0.010850694444444444,0,0)" xlink:href="#av"/><use transform="matrix(0.010850694444444444,0,0,0.010850694444444444,16.03732638888889,0)" xlink:href="#ac"/><use transform="matrix(0.010850694444444444,0,0,0.010850694444444444,28.515625,0)" xlink:href="#an"/><use transform="matrix(0.010850694444444444,0,0,0.010850694444444444,35.89409722222222,0)" xlink:href="#ac"/></g><path d="M180 0v-1490h510c348 0 508 194 508 460 0 198-88 351-276 417L1256 0h-220L726-579c-117 2-238 0-356 1V0H180zm190-747h312c235 0 327-108 327-283 0-177-92-293-329-293H370v576" id="aA"/><g id="n"><use transform="matrix(0.010850694444444444,0,0,0.010850694444444444,0,0)" xlink:href="#aA"/><use transform="matrix(0.010850694444444444,0,0,0.010850694444444444,13.975694444444445,0)" xlink:href="#ag"/><use transform="matrix(0.010850694444444444,0,0,0.010850694444444444,26.931423611111104,0)" xlink:href="#af"/><use transform="matrix(0.010850694444444444,0,0,0.010850694444444444,40.55989583333333,0)" xlink:href="#al"/><use transform="matrix(0.010850694444444444,0,0,0.010850694444444444,45.94184027777778,0)" xlink:href="#ad"/><use transform="matrix(0.010850694444444444,0,0,0.010850694444444444,57.67144097222221,0)" xlink:href="#an"/><use transform="matrix(0.010850694444444444,0,0,0.010850694444444444,64.7243923611111,0)" xlink:href="#ag"/><use transform="matrix(0.010850694444444444,0,0,0.010850694444444444,77.68012152777777,0)" xlink:href="#ah"/></g><path d="M613 24c-304 0-509-231-509-576 0-350 205-580 509-580 305 0 511 230 511 580 0 345-206 576-511 576zm0-161c226 0 329-195 329-415 0-222-103-419-329-419-223 0-326 196-326 419 0 220 103 415 326 415" id="aB"/><g id="o"><use transform="matrix(0.010850694444444444,0,0,0.010850694444444444,0,0)" xlink:href="#am"/><use transform="matrix(0.010850694444444444,0,0,0.010850694444444444,14.2578125,0)" xlink:href="#an"/><use transform="matrix(0.010850694444444444,0,0,0.010850694444444444,21.31076388888889,0)" xlink:href="#aB"/><use transform="matrix(0.010850694444444444,0,0,0.010850694444444444,34.635416666666664,0)" xlink:href="#ay"/><use transform="matrix(0.010850694444444444,0,0,0.010850694444444444,48.2421875,0)" xlink:href="#ad"/></g><path d="M180 0v-1490h270l367 940c28 72 75 218 110 339 35-117 81-264 110-339l362-940h271V0h-187c2-448-5-837 7-1287-157 497-311 829-483 1287H842C666-458 514-784 354-1284c12 438 5 843 7 1284H180" id="aC"/><g id="p"><use transform="matrix(0.010850694444444444,0,0,0.010850694444444444,0,0)" xlink:href="#aC"/><use transform="matrix(0.010850694444444444,0,0,0.010850694444444444,20.07378472222222,0)" xlink:href="#aB"/><use transform="matrix(0.010850694444444444,0,0,0.010850694444444444,33.3984375,0)" xlink:href="#ae"/><use transform="matrix(0.010850694444444444,0,0,0.010850694444444444,46.52777777777778,0)" xlink:href="#al"/><use transform="matrix(0.010850694444444444,0,0,0.010850694444444444,51.90972222222222,0)" xlink:href="#an"/><use transform="matrix(0.010850694444444444,0,0,0.010850694444444444,58.96267361111112,0)" xlink:href="#aB"/><use transform="matrix(0.010850694444444444,0,0,0.010850694444444444,72.28732638888889,0)" xlink:href="#ah"/></g><g id="q"><use transform="matrix(0.010850694444444444,0,0,0.010850694444444444,0,0)" xlink:href="#ab"/><use transform="matrix(0.010850694444444444,0,0,0.010850694444444444,14.073350694444445,0)" xlink:href="#aB"/><use transform="matrix(0.010850694444444444,0,0,0.010850694444444444,27.39800347222222,0)" xlink:href="#ad"/><use transform="matrix(0.010850694444444444,0,0,0.010850694444444444,39.127604166666664,0)" xlink:href="#al"/><use transform="matrix(0.010850694444444444,0,0,0.010850694444444444,44.50954861111111,0)" xlink:href="#an"/><use transform="matrix(0.010850694444444444,0,0,0.010850694444444444,51.779513888888886,0)" xlink:href="#al"/><use transform="matrix(0.010850694444444444,0,0,0.010850694444444444,57.16145833333333,0)" xlink:href="#aB"/><use transform="matrix(0.010850694444444444,0,0,0.010850694444444444,70.4861111111111,0)" xlink:href="#ae"/></g><path d="M783 20c-382 0-661-292-661-764 0-473 279-766 661-766 302 0 548 182 601 489h-190c-42-204-217-313-411-313-268 0-476 208-476 590 0 381 209 588 476 588 195 0 369-110 411-313h190c-52 303-296 489-601 489" id="aD"/><path d="M537 14c-226 0-379-139-379-422v-710h180v695c0 172 97 275 253 275 160 0 281-109 281-300v-670h181V0H879v-209C806-46 684 14 537 14" id="aE"/><g id="r"><use transform="matrix(0.010850694444444444,0,0,0.010850694444444444,0,0)" xlink:href="#aD"/><use transform="matrix(0.010850694444444444,0,0,0.010850694444444444,16.23263888888889,0)" xlink:href="#ac"/><use transform="matrix(0.010850694444444444,0,0,0.010850694444444444,28.7109375,0)" xlink:href="#au"/><use transform="matrix(0.010850694444444444,0,0,0.010850694444444444,34.09288194444444,0)" xlink:href="#at"/><use transform="matrix(0.010850694444444444,0,0,0.010850694444444444,46.78819444444444,0)" xlink:href="#aE"/><use transform="matrix(0.010850694444444444,0,0,0.010850694444444444,59.928385416666664,0)" xlink:href="#au"/><use transform="matrix(0.010850694444444444,0,0,0.010850694444444444,65.31032986111111,0)" xlink:href="#ac"/><use transform="matrix(0.010850694444444444,0,0,0.010850694444444444,77.78862847222223,0)" xlink:href="#an"/><use transform="matrix(0.010850694444444444,0,0,0.010850694444444444,84.84157986111111,0)" xlink:href="#ag"/></g><path d="M140 405l46-156c120 36 205 19 263-150l32-93L54-1118h197c107 313 237 620 324 950 87-331 219-637 326-950h196L606 167c-68 178-176 259-334 259-64 0-113-12-132-21" id="aF"/><g id="s"><use transform="matrix(0.010850694444444444,0,0,0.010850694444444444,0,0)" xlink:href="#av"/><use transform="matrix(0.010850694444444444,0,0,0.010850694444444444,16.03732638888889,0)" xlink:href="#ag"/><use transform="matrix(0.010850694444444444,0,0,0.010850694444444444,28.99305555555556,0)" xlink:href="#au"/><use transform="matrix(0.010850694444444444,0,0,0.010850694444444444,34.375,0)" xlink:href="#ac"/><use transform="matrix(0.010850694444444444,0,0,0.010850694444444444,46.52777777777778,0)" xlink:href="#aF"/><use transform="matrix(0.010850694444444444,0,0,0.010850694444444444,59.01692708333333,0)" xlink:href="#ad"/></g><path d="M180 0v-1490h908v168H370v486h669v168H370v500h727V0H180" id="aG"/><g id="t"><use transform="matrix(0.010850694444444444,0,0,0.010850694444444444,0,0)" xlink:href="#aG"/><use transform="matrix(0.010850694444444444,0,0,0.010850694444444444,13.35720486111111,0)" xlink:href="#ap"/><use transform="matrix(0.010850694444444444,0,0,0.010850694444444444,25.813802083333332,0)" xlink:href="#ai"/></g><path d="M784 20c-382 0-662-292-662-764 0-473 280-766 662-766s660 293 660 766c0 472-278 764-660 764zm0-176c266 0 475-207 475-588 0-383-209-590-475-590-268 0-477 208-477 590 0 380 209 588 477 588" id="aH"/><path d="M126 0v-134l627-806v-11H146v-167h839v143L376-178v11h629V0H126" id="aI"/><g id="u"><use transform="matrix(0.010850694444444444,0,0,0.010850694444444444,0,0)" xlink:href="#aH"/><use transform="matrix(0.010850694444444444,0,0,0.010850694444444444,16.9921875,0)" xlink:href="#ay"/><use transform="matrix(0.010850694444444444,0,0,0.010850694444444444,30.598958333333332,0)" xlink:href="#an"/><use transform="matrix(0.010850694444444444,0,0,0.010850694444444444,37.86892361111111,0)" xlink:href="#al"/><use transform="matrix(0.010850694444444444,0,0,0.010850694444444444,43.25086805555555,0)" xlink:href="#ak"/><use transform="matrix(0.010850694444444444,0,0,0.010850694444444444,62.717013888888886,0)" xlink:href="#al"/><use transform="matrix(0.010850694444444444,0,0,0.010850694444444444,68.09895833333333,0)" xlink:href="#aI"/><use transform="matrix(0.010850694444444444,0,0,0.010850694444444444,80.04557291666667,0)" xlink:href="#ag"/></g><path d="M545 20c-263 0-445-160-445-446v-80h190v80c0 182 102 279 255 279 152 0 254-97 254-279v-1064h190v1064c0 286-181 446-444 446" id="aJ"/><g id="v"><use transform="matrix(0.010850694444444444,0,0,0.010850694444444444,0,0)" xlink:href="#aJ"/><use transform="matrix(0.010850694444444444,0,0,0.010850694444444444,12.684461805555555,0)" xlink:href="#aB"/><use transform="matrix(0.010850694444444444,0,0,0.010850694444444444,26.009114583333332,0)" xlink:href="#aE"/><use transform="matrix(0.010850694444444444,0,0,0.010850694444444444,39.14930555555556,0)" xlink:href="#ah"/><use transform="matrix(0.010850694444444444,0,0,0.010850694444444444,47.86241319444444,0)" xlink:href="#ae"/><use transform="matrix(0.010850694444444444,0,0,0.010850694444444444,60.99175347222222,0)" xlink:href="#ag"/><use transform="matrix(0.010850694444444444,0,0,0.010850694444444444,73.51345486111111,0)" xlink:href="#aF"/></g><g id="w"><use transform="matrix(0.010850694444444444,0,0,0.010850694444444444,0,0)" xlink:href="#ax"/><use transform="matrix(0.010850694444444444,0,0,0.010850694444444444,16.536458333333332,0)" xlink:href="#ad"/><use transform="matrix(0.010850694444444444,0,0,0.010850694444444444,28.266059027777775,0)" xlink:href="#ag"/><use transform="matrix(0.010850694444444444,0,0,0.010850694444444444,41.22178819444444,0)" xlink:href="#ah"/></g><g id="x"><use transform="matrix(0.010850694444444444,0,0,0.010850694444444444,0,0)" xlink:href="#ax"/><use transform="matrix(0.010850694444444444,0,0,0.010850694444444444,16.536458333333332,0)" xlink:href="#ay"/><use transform="matrix(0.010850694444444444,0,0,0.010850694444444444,30.143229166666664,0)" xlink:href="#aj"/><use transform="matrix(0.010850694444444444,0,0,0.010850694444444444,43.75,0)" xlink:href="#ac"/><use transform="matrix(0.010850694444444444,0,0,0.010850694444444444,56.22829861111112,0)" xlink:href="#an"/><use transform="matrix(0.010850694444444444,0,0,0.010850694444444444,63.28125000000001,0)" xlink:href="#ag"/></g><g id="y"><use transform="matrix(0.010850694444444444,0,0,0.010850694444444444,0,0)" xlink:href="#ab"/><use transform="matrix(0.010850694444444444,0,0,0.010850694444444444,14.192708333333332,0)" xlink:href="#ah"/><use transform="matrix(0.010850694444444444,0,0,0.010850694444444444,22.189670138888886,0)" xlink:href="#aB"/><use transform="matrix(0.010850694444444444,0,0,0.010850694444444444,35.514322916666664,0)" xlink:href="#ao"/><use transform="matrix(0.010850694444444444,0,0,0.010850694444444444,43.73914930555556,0)" xlink:href="#al"/><use transform="matrix(0.010850694444444444,0,0,0.010850694444444444,49.12109375,0)" xlink:href="#au"/><use transform="matrix(0.010850694444444444,0,0,0.010850694444444444,54.50303819444444,0)" xlink:href="#ag"/></g><g id="z"><use transform="matrix(0.010850694444444444,0,0,0.010850694444444444,0,0)" xlink:href="#ar"/><use transform="matrix(0.010850694444444444,0,0,0.010850694444444444,14.20355902777778,0)" xlink:href="#ag"/><use transform="matrix(0.010850694444444444,0,0,0.010850694444444444,27.159288194444443,0)" xlink:href="#ah"/><use transform="matrix(0.010850694444444444,0,0,0.010850694444444444,35.87239583333333,0)" xlink:href="#al"/><use transform="matrix(0.010850694444444444,0,0,0.010850694444444444,41.25434027777777,0)" xlink:href="#ao"/><use transform="matrix(0.010850694444444444,0,0,0.010850694444444444,49.47916666666666,0)" xlink:href="#aF"/></g><g id="A"><use transform="matrix(0.010850694444444444,0,0,0.010850694444444444,0,0)" xlink:href="#at"/><use transform="matrix(0.010850694444444444,0,0,0.010850694444444444,12.6953125,0)" xlink:href="#ah"/><use transform="matrix(0.010850694444444444,0,0,0.010850694444444444,20.692274305555557,0)" xlink:href="#ag"/><use transform="matrix(0.010850694444444444,0,0,0.010850694444444444,33.64800347222222,0)" xlink:href="#aj"/><use transform="matrix(0.010850694444444444,0,0,0.010850694444444444,47.25477430555556,0)" xlink:href="#ag"/><use transform="matrix(0.010850694444444444,0,0,0.010850694444444444,60.21050347222222,0)" xlink:href="#ae"/><use transform="matrix(0.010850694444444444,0,0,0.010850694444444444,73.33984375,0)" xlink:href="#an"/><use transform="matrix(0.010850694444444444,0,0,0.010850694444444444,80.60980902777777,0)" xlink:href="#al"/><use transform="matrix(0.010850694444444444,0,0,0.010850694444444444,85.99175347222221,0)" xlink:href="#ac"/><use transform="matrix(0.010850694444444444,0,0,0.010850694444444444,98.47005208333333,0)" xlink:href="#au"/><use transform="matrix(0.010850694444444444,0,0,0.010850694444444444,103.85199652777777,0)" xlink:href="#ad"/></g><g id="B"><use transform="matrix(0.010850694444444444,0,0,0.010850694444444444,0,0)" xlink:href="#ab"/><use transform="matrix(0.010850694444444444,0,0,0.010850694444444444,14.192708333333332,0)" xlink:href="#aE"/><use transform="matrix(0.010850694444444444,0,0,0.010850694444444444,27.332899305555554,0)" xlink:href="#aw"/><use transform="matrix(0.010850694444444444,0,0,0.010850694444444444,40.939670138888886,0)" xlink:href="#au"/><use transform="matrix(0.010850694444444444,0,0,0.010850694444444444,46.32161458333333,0)" xlink:href="#al"/><use transform="matrix(0.010850694444444444,0,0,0.010850694444444444,51.70355902777778,0)" xlink:href="#ad"/><use transform="matrix(0.010850694444444444,0,0,0.010850694444444444,63.43315972222221,0)" xlink:href="#as"/></g><g id="C"><use transform="matrix(0.010850694444444444,0,0,0.010850694444444444,0,0)" xlink:href="#aE"/><use transform="matrix(0.010850694444444444,0,0,0.010850694444444444,13.140190972222221,0)" xlink:href="#ay"/><use transform="matrix(0.010850694444444444,0,0,0.010850694444444444,26.746961805555554,0)" xlink:href="#aj"/><use transform="matrix(0.010850694444444444,0,0,0.010850694444444444,40.353732638888886,0)" xlink:href="#ac"/><use transform="matrix(0.010850694444444444,0,0,0.010850694444444444,52.83203125,0)" xlink:href="#an"/><use transform="matrix(0.010850694444444444,0,0,0.010850694444444444,59.8849826388889,0)" xlink:href="#ag"/><use transform="matrix(0.010850694444444444,0,0,0.010850694444444444,72.84071180555556,0)" xlink:href="#ad"/></g><g id="D"><use transform="matrix(0.010850694444444444,0,0,0.010850694444444444,0,0)" xlink:href="#aA"/><use transform="matrix(0.010850694444444444,0,0,0.010850694444444444,13.975694444444445,0)" xlink:href="#aB"/><use transform="matrix(0.010850694444444444,0,0,0.010850694444444444,27.30034722222222,0)" xlink:href="#aE"/><use transform="matrix(0.010850694444444444,0,0,0.010850694444444444,40.44053819444444,0)" xlink:href="#an"/><use transform="matrix(0.010850694444444444,0,0,0.010850694444444444,47.49348958333333,0)" xlink:href="#ag"/></g><g id="E"><use transform="matrix(0.010850694444444444,0,0,0.010850694444444444,0,0)" xlink:href="#av"/><use transform="matrix(0.010850694444444444,0,0,0.010850694444444444,16.03732638888889,0)" xlink:href="#ac"/><use transform="matrix(0.010850694444444444,0,0,0.010850694444444444,28.515625,0)" xlink:href="#an"/><use transform="matrix(0.010850694444444444,0,0,0.010850694444444444,35.89409722222222,0)" xlink:href="#ac"/><use transform="matrix(0.010850694444444444,0,0,0.010850694444444444,48.37239583333333,0)" xlink:href="#aw"/><use transform="matrix(0.010850694444444444,0,0,0.010850694444444444,62.19618055555554,0)" xlink:href="#ac"/><use transform="matrix(0.010850694444444444,0,0,0.010850694444444444,74.67447916666666,0)" xlink:href="#ad"/><use transform="matrix(0.010850694444444444,0,0,0.010850694444444444,86.4040798611111,0)" xlink:href="#ag"/></g><g id="F"><use transform="matrix(0.010850694444444444,0,0,0.010850694444444444,0,0)" xlink:href="#aC"/><use transform="matrix(0.010850694444444444,0,0,0.010850694444444444,20.07378472222222,0)" xlink:href="#aB"/><use transform="matrix(0.010850694444444444,0,0,0.010850694444444444,33.3984375,0)" xlink:href="#aj"/><use transform="matrix(0.010850694444444444,0,0,0.010850694444444444,47.00520833333333,0)" xlink:href="#al"/><use transform="matrix(0.010850694444444444,0,0,0.010850694444444444,52.38715277777778,0)" xlink:href="#ao"/><use transform="matrix(0.010850694444444444,0,0,0.010850694444444444,60.61197916666666,0)" xlink:href="#aF"/></g><g id="G"><use transform="matrix(0.010850694444444444,0,0,0.010850694444444444,0,0)" xlink:href="#aA"/><use transform="matrix(0.010850694444444444,0,0,0.010850694444444444,13.975694444444445,0)" xlink:href="#aB"/><use transform="matrix(0.010850694444444444,0,0,0.010850694444444444,27.30034722222222,0)" xlink:href="#aE"/><use transform="matrix(0.010850694444444444,0,0,0.010850694444444444,40.44053819444444,0)" xlink:href="#an"/><use transform="matrix(0.010850694444444444,0,0,0.010850694444444444,47.49348958333333,0)" xlink:href="#ag"/><use transform="matrix(0.010850694444444444,0,0,0.010850694444444444,60.44921875,0)" xlink:href="#ad"/></g><g id="H"><use transform="matrix(0.010850694444444444,0,0,0.010850694444444444,0,0)" xlink:href="#am"/><use transform="matrix(0.010850694444444444,0,0,0.010850694444444444,14.2578125,0)" xlink:href="#ag"/><use transform="matrix(0.010850694444444444,0,0,0.010850694444444444,27.213541666666664,0)" xlink:href="#au"/><use transform="matrix(0.010850694444444444,0,0,0.010850694444444444,32.59548611111111,0)" xlink:href="#ag"/><use transform="matrix(0.010850694444444444,0,0,0.010850694444444444,45.55121527777778,0)" xlink:href="#at"/><use transform="matrix(0.010850694444444444,0,0,0.010850694444444444,58.24652777777778,0)" xlink:href="#an"/></g><path d="M158 0v-1490h180v865h22l478-493h223L593-638 1096 0H865L456-523 338-412V0H158" id="aK"/><g id="I"><use transform="matrix(0.010850694444444444,0,0,0.010850694444444444,0,0)" xlink:href="#ap"/><use transform="matrix(0.010850694444444444,0,0,0.010850694444444444,14.344618055555555,0)" xlink:href="#al"/><use transform="matrix(0.010850694444444444,0,0,0.010850694444444444,19.7265625,0)" xlink:href="#at"/><use transform="matrix(0.010850694444444444,0,0,0.010850694444444444,32.421875,0)" xlink:href="#aK"/><use transform="matrix(0.010850694444444444,0,0,0.010850694444444444,44.118923611111114,0)" xlink:href="#ag"/><use transform="matrix(0.010850694444444444,0,0,0.010850694444444444,57.07465277777778,0)" xlink:href="#an"/></g><g id="J"><use transform="matrix(0.010850694444444444,0,0,0.010850694444444444,0,0)" xlink:href="#ap"/><use transform="matrix(0.010850694444444444,0,0,0.010850694444444444,12.955729166666666,0)" xlink:href="#aF"/><use transform="matrix(0.010850694444444444,0,0,0.010850694444444444,25.44487847222222,0)" xlink:href="#ay"/><use transform="matrix(0.010850694444444444,0,0,0.010850694444444444,39.05164930555556,0)" xlink:href="#ag"/></g><g id="K"><use transform="matrix(0.010850694444444444,0,0,0.010850694444444444,0,0)" xlink:href="#aD"/><use transform="matrix(0.010850694444444444,0,0,0.010850694444444444,16.23263888888889,0)" xlink:href="#ah"/><use transform="matrix(0.010850694444444444,0,0,0.010850694444444444,24.229600694444443,0)" xlink:href="#ag"/><use transform="matrix(0.010850694444444444,0,0,0.010850694444444444,37.40234375,0)" xlink:href="#ac"/><use transform="matrix(0.010850694444444444,0,0,0.010850694444444444,49.88064236111111,0)" xlink:href="#an"/><use transform="matrix(0.010850694444444444,0,0,0.010850694444444444,56.93359375000001,0)" xlink:href="#ag"/></g><g id="L"><use transform="matrix(0.010850694444444444,0,0,0.010850694444444444,0,0)" xlink:href="#ad"/><use transform="matrix(0.010850694444444444,0,0,0.010850694444444444,11.729600694444445,0)" xlink:href="#at"/><use transform="matrix(0.010850694444444444,0,0,0.010850694444444444,24.424913194444443,0)" xlink:href="#as"/><use transform="matrix(0.010850694444444444,0,0,0.010850694444444444,37.565104166666664,0)" xlink:href="#ag"/><use transform="matrix(0.010850694444444444,0,0,0.010850694444444444,50.52083333333333,0)" xlink:href="#aj"/><use transform="matrix(0.010850694444444444,0,0,0.010850694444444444,64.12760416666666,0)" xlink:href="#aE"/><use transform="matrix(0.010850694444444444,0,0,0.010850694444444444,77.26779513888889,0)" xlink:href="#au"/><use transform="matrix(0.010850694444444444,0,0,0.010850694444444444,82.64973958333333,0)" xlink:href="#ag"/></g><g id="M"><use transform="matrix(0.010850694444444444,0,0,0.010850694444444444,0,0)" xlink:href="#am"/><use transform="matrix(0.010850694444444444,0,0,0.010850694444444444,14.2578125,0)" xlink:href="#at"/><use transform="matrix(0.010850694444444444,0,0,0.010850694444444444,26.953125,0)" xlink:href="#as"/><use transform="matrix(0.010850694444444444,0,0,0.010850694444444444,40.09331597222222,0)" xlink:href="#ag"/><use transform="matrix(0.010850694444444444,0,0,0.010850694444444444,53.049045138888886,0)" xlink:href="#aj"/><use transform="matrix(0.010850694444444444,0,0,0.010850694444444444,66.65581597222221,0)" xlink:href="#aE"/><use transform="matrix(0.010850694444444444,0,0,0.010850694444444444,79.79600694444443,0)" xlink:href="#au"/><use transform="matrix(0.010850694444444444,0,0,0.010850694444444444,85.17795138888887,0)" xlink:href="#ag"/></g><g id="N"><use transform="matrix(0.010850694444444444,0,0,0.010850694444444444,0,0)" xlink:href="#aG"/><use transform="matrix(0.010850694444444444,0,0,0.010850694444444444,13.35720486111111,0)" xlink:href="#ae"/><use transform="matrix(0.010850694444444444,0,0,0.010850694444444444,26.48654513888889,0)" xlink:href="#an"/><use transform="matrix(0.010850694444444444,0,0,0.010850694444444444,33.53949652777777,0)" xlink:href="#ag"/><use transform="matrix(0.010850694444444444,0,0,0.010850694444444444,46.495225694444436,0)" xlink:href="#ah"/></g><g id="O"><use transform="matrix(0.010850694444444444,0,0,0.010850694444444444,0,0)" xlink:href="#ab"/><use transform="matrix(0.010850694444444444,0,0,0.010850694444444444,14.192708333333332,0)" xlink:href="#ac"/><use transform="matrix(0.010850694444444444,0,0,0.010850694444444444,26.345486111111104,0)" xlink:href="#aF"/><use transform="matrix(0.010850694444444444,0,0,0.010850694444444444,38.834635416666664,0)" xlink:href="#ak"/><use transform="matrix(0.010850694444444444,0,0,0.010850694444444444,58.30078125,0)" xlink:href="#ag"/><use transform="matrix(0.010850694444444444,0,0,0.010850694444444444,71.25651041666667,0)" xlink:href="#ae"/><use transform="matrix(0.010850694444444444,0,0,0.010850694444444444,84.38585069444444,0)" xlink:href="#an"/></g><g id="P"><use transform="matrix(0.010850694444444444,0,0,0.010850694444444444,0,0)" xlink:href="#av"/><use transform="matrix(0.010850694444444444,0,0,0.010850694444444444,16.03732638888889,0)" xlink:href="#ag"/><use transform="matrix(0.010850694444444444,0,0,0.010850694444444444,28.99305555555556,0)" xlink:href="#an"/><use transform="matrix(0.010850694444444444,0,0,0.010850694444444444,36.37152777777778,0)" xlink:href="#ac"/><use transform="matrix(0.010850694444444444,0,0,0.010850694444444444,48.849826388888886,0)" xlink:href="#al"/><use transform="matrix(0.010850694444444444,0,0,0.010850694444444444,54.23177083333333,0)" xlink:href="#au"/><use transform="matrix(0.010850694444444444,0,0,0.010850694444444444,59.61371527777778,0)" xlink:href="#ad"/></g><g id="Q"><use transform="matrix(0.010850694444444444,0,0,0.010850694444444444,0,0)" xlink:href="#ar"/><use transform="matrix(0.010850694444444444,0,0,0.010850694444444444,14.20355902777778,0)" xlink:href="#ac"/><use transform="matrix(0.010850694444444444,0,0,0.010850694444444444,26.68185763888889,0)" xlink:href="#au"/><use transform="matrix(0.010850694444444444,0,0,0.010850694444444444,32.063802083333336,0)" xlink:href="#al"/><use transform="matrix(0.010850694444444444,0,0,0.010850694444444444,37.44574652777778,0)" xlink:href="#aj"/><use transform="matrix(0.010850694444444444,0,0,0.010850694444444444,51.05251736111112,0)" xlink:href="#ac"/><use transform="matrix(0.010850694444444444,0,0,0.010850694444444444,63.53081597222223,0)" xlink:href="#an"/><use transform="matrix(0.010850694444444444,0,0,0.010850694444444444,70.58376736111111,0)" xlink:href="#ag"/></g><g id="R"><use transform="matrix(0.010850694444444444,0,0,0.010850694444444444,0,0)" xlink:href="#aD"/><use transform="matrix(0.010850694444444444,0,0,0.010850694444444444,16.23263888888889,0)" xlink:href="#ac"/><use transform="matrix(0.010850694444444444,0,0,0.010850694444444444,28.7109375,0)" xlink:href="#ah"/><use transform="matrix(0.010850694444444444,0,0,0.010850694444444444,36.70789930555556,0)" xlink:href="#aj"/></g><g id="S"><use transform="matrix(0.010850694444444444,0,0,0.010850694444444444,0,0)" xlink:href="#ab"/><use transform="matrix(0.010850694444444444,0,0,0.010850694444444444,14.192708333333332,0)" xlink:href="#ah"/><use transform="matrix(0.010850694444444444,0,0,0.010850694444444444,22.189670138888886,0)" xlink:href="#aB"/><use transform="matrix(0.010850694444444444,0,0,0.010850694444444444,35.514322916666664,0)" xlink:href="#at"/><use transform="matrix(0.010850694444444444,0,0,0.010850694444444444,48.209635416666664,0)" xlink:href="#ag"/><use transform="matrix(0.010850694444444444,0,0,0.010850694444444444,61.16536458333333,0)" xlink:href="#ad"/><use transform="matrix(0.010850694444444444,0,0,0.010850694444444444,72.89496527777777,0)" xlink:href="#ad"/></g><g id="T"><use transform="matrix(0.010850694444444444,0,0,0.010850694444444444,0,0)" xlink:href="#ap"/><use transform="matrix(0.010850694444444444,0,0,0.010850694444444444,13.0859375,0)" xlink:href="#ah"/><use transform="matrix(0.010850694444444444,0,0,0.010850694444444444,21.451822916666664,0)" xlink:href="#ac"/><use transform="matrix(0.010850694444444444,0,0,0.010850694444444444,33.93012152777777,0)" xlink:href="#ae"/><use transform="matrix(0.010850694444444444,0,0,0.010850694444444444,47.05946180555556,0)" xlink:href="#ad"/><use transform="matrix(0.010850694444444444,0,0,0.010850694444444444,58.789062499999986,0)" xlink:href="#ac"/><use transform="matrix(0.010850694444444444,0,0,0.010850694444444444,71.2673611111111,0)" xlink:href="#at"/><use transform="matrix(0.010850694444444444,0,0,0.010850694444444444,83.9626736111111,0)" xlink:href="#an"/><use transform="matrix(0.010850694444444444,0,0,0.010850694444444444,91.23263888888887,0)" xlink:href="#al"/><use transform="matrix(0.010850694444444444,0,0,0.010850694444444444,96.61458333333331,0)" xlink:href="#aB"/><use transform="matrix(0.010850694444444444,0,0,0.010850694444444444,109.93923611111109,0)" xlink:href="#ae"/></g><path d="M370-1490V0H180v-1490h190" id="aL"/><g id="U"><use transform="matrix(0.010850694444444444,0,0,0.010850694444444444,0,0)" xlink:href="#aL"/><use transform="matrix(0.010850694444444444,0,0,0.010850694444444444,5.967881944444445,0)" xlink:href="#ad"/><use transform="matrix(0.010850694444444444,0,0,0.010850694444444444,17.69748263888889,0)" xlink:href="#ad"/><use transform="matrix(0.010850694444444444,0,0,0.010850694444444444,29.427083333333336,0)" xlink:href="#aE"/><use transform="matrix(0.010850694444444444,0,0,0.010850694444444444,42.56727430555556,0)" xlink:href="#ag"/></g><g id="V"><use transform="matrix(0.010850694444444444,0,0,0.010850694444444444,0,0)" xlink:href="#aA"/><use transform="matrix(0.010850694444444444,0,0,0.010850694444444444,13.975694444444445,0)" xlink:href="#ag"/><use transform="matrix(0.010850694444444444,0,0,0.010850694444444444,26.931423611111104,0)" xlink:href="#at"/><use transform="matrix(0.010850694444444444,0,0,0.010850694444444444,39.62673611111111,0)" xlink:href="#al"/><use transform="matrix(0.010850694444444444,0,0,0.010850694444444444,45.00868055555556,0)" xlink:href="#ag"/><use transform="matrix(0.010850694444444444,0,0,0.010850694444444444,57.96440972222221,0)" xlink:href="#ay"/><use transform="matrix(0.010850694444444444,0,0,0.010850694444444444,71.57118055555554,0)" xlink:href="#an"/></g><g id="W"><use transform="matrix(0.010850694444444444,0,0,0.010850694444444444,0,0)" xlink:href="#aD"/><use transform="matrix(0.010850694444444444,0,0,0.010850694444444444,16.23263888888889,0)" xlink:href="#aB"/><use transform="matrix(0.010850694444444444,0,0,0.010850694444444444,29.557291666666664,0)" xlink:href="#ae"/><use transform="matrix(0.010850694444444444,0,0,0.010850694444444444,42.68663194444444,0)" xlink:href="#ao"/><use transform="matrix(0.010850694444444444,0,0,0.010850694444444444,50.91145833333333,0)" xlink:href="#al"/><use transform="matrix(0.010850694444444444,0,0,0.010850694444444444,56.29340277777778,0)" xlink:href="#ah"/><use transform="matrix(0.010850694444444444,0,0,0.010850694444444444,65.00651041666666,0)" xlink:href="#ak"/></g><g id="X"><use transform="matrix(0.010850694444444444,0,0,0.010850694444444444,0,0)" xlink:href="#ay"/><use transform="matrix(0.010850694444444444,0,0,0.010850694444444444,13.606770833333332,0)" xlink:href="#aE"/><use transform="matrix(0.010850694444444444,0,0,0.010850694444444444,26.746961805555554,0)" xlink:href="#ah"/><use transform="matrix(0.010850694444444444,0,0,0.010850694444444444,34.74392361111111,0)" xlink:href="#at"/><use transform="matrix(0.010850694444444444,0,0,0.010850694444444444,47.43923611111111,0)" xlink:href="#as"/><use transform="matrix(0.010850694444444444,0,0,0.010850694444444444,60.57942708333333,0)" xlink:href="#ac"/><use transform="matrix(0.010850694444444444,0,0,0.010850694444444444,73.05772569444444,0)" xlink:href="#ad"/><use transform="matrix(0.010850694444444444,0,0,0.010850694444444444,84.78732638888889,0)" xlink:href="#ag"/></g><g id="Y"><use transform="matrix(0.010850694444444444,0,0,0.010850694444444444,0,0)" xlink:href="#ab"/><use transform="matrix(0.010850694444444444,0,0,0.010850694444444444,14.192708333333332,0)" xlink:href="#ac"/><use transform="matrix(0.010850694444444444,0,0,0.010850694444444444,26.345486111111104,0)" xlink:href="#aF"/><use transform="matrix(0.010850694444444444,0,0,0.010850694444444444,38.834635416666664,0)" xlink:href="#ak"/><use transform="matrix(0.010850694444444444,0,0,0.010850694444444444,58.30078125,0)" xlink:href="#ag"/><use transform="matrix(0.010850694444444444,0,0,0.010850694444444444,71.25651041666667,0)" xlink:href="#ae"/><use transform="matrix(0.010850694444444444,0,0,0.010850694444444444,84.38585069444444,0)" xlink:href="#an"/></g><g id="Z"><use transform="matrix(0.010850694444444444,0,0,0.010850694444444444,0,0)" xlink:href="#am"/><use transform="matrix(0.010850694444444444,0,0,0.010850694444444444,14.2578125,0)" xlink:href="#ag"/><use transform="matrix(0.010850694444444444,0,0,0.010850694444444444,27.43055555555556,0)" xlink:href="#ac"/><use transform="matrix(0.010850694444444444,0,0,0.010850694444444444,39.90885416666667,0)" xlink:href="#ah"/><use transform="matrix(0.010850694444444444,0,0,0.010850694444444444,47.90581597222222,0)" xlink:href="#at"/><use transform="matrix(0.010850694444444444,0,0,0.010850694444444444,60.60112847222222,0)" xlink:href="#as"/></g><g id="aa"><use transform="matrix(0.010850694444444444,0,0,0.010850694444444444,0,0)" xlink:href="#ap"/><use transform="matrix(0.010850694444444444,0,0,0.010850694444444444,14.344618055555555,0)" xlink:href="#al"/><use transform="matrix(0.010850694444444444,0,0,0.010850694444444444,19.7265625,0)" xlink:href="#at"/><use transform="matrix(0.010850694444444444,0,0,0.010850694444444444,32.421875,0)" xlink:href="#aK"/><use transform="matrix(0.010850694444444444,0,0,0.010850694444444444,44.118923611111114,0)" xlink:href="#ag"/><use transform="matrix(0.010850694444444444,0,0,0.010850694444444444,57.07465277777778,0)" xlink:href="#an"/></g></defs></g></svg>