<svg xmlns="http://www.w3.org/2000/svg" xmlns:xlink="http://www.w3.org/1999/xlink" xmlns:lucid="lucid" width="1234" height="936"><g transform="translate(-436 0)" lucid:page-tab-id="0_0"><path d="M0 0h2000v1000H0z" fill="#f2f3f5"/><path d="M1168 407.47c0 70.7-68.35 128-152.67 128-84.3 0-152.66-57.3-152.66-128s68.35-128 152.66-128c84.32 0 152.67 57.3 152.67 128z" stroke="#d916a8" stroke-width="2" fill="#ffd6f5"/><use xlink:href="#a" transform="matrix(1,0,0,1,877.9333333333335,292.2666666666667) translate(57.4560546875 90.15625)"/><use xlink:href="#b" transform="matrix(1,0,0,1,877.9333333333335,292.2666666666667) translate(142.197265625 90.15625)"/><use xlink:href="#c" transform="matrix(1,0,0,1,877.9333333333335,292.2666666666667) translate(47.76318359375 127.90703124999999)"/><use xlink:href="#d" transform="matrix(1,0,0,1,877.9333333333335,292.2666666666667) translate(91.8984375 165.65781249999998)"/><path d="M456.27 81.47a6 6 0 0 1 6-6H727.6a6 6 0 0 1 6 6v192a6 6 0 0 1-6 6H462.27a6 6 0 0 1-6-6z" stroke="#635dff" stroke-width="2" fill="#dedeff"/><use xlink:href="#e" transform="matrix(1,0,0,1,470.1333333333333,85.6666666666667) translate(53.1064453125 99.9375)"/><path d="M876.53 648.8a6 6 0 0 1 6-6h265.34a6 6 0 0 1 6 6v192a6 6 0 0 1-6 6H882.53a6 6 0 0 1-6-6z" stroke="#635dff" stroke-width="2" fill="#dedeff"/><use xlink:href="#f" transform="matrix(1,0,0,1,890.4000000000001,653) translate(35.5361328125 99.9375)"/><use xlink:href="#g" transform="matrix(1,0,0,1,890.4000000000001,653) translate(126.4345703125 99.9375)"/><path d="M1297.07 81.47a6 6 0 0 1 6-6h265.33a6 6 0 0 1 6 6v192a6 6 0 0 1-6 6h-265.33a6 6 0 0 1-6-6z" stroke="#635dff" stroke-width="2" fill="#dedeff"/><use xlink:href="#h" transform="matrix(1,0,0,1,1310.9333333333336,85.6666666666667) translate(53.12548828125 99.9375)"/><use xlink:href="#i" transform="matrix(1,0,0,1,1310.9333333333336,85.6666666666667) translate(138.72998046875 99.9375)"/><path d="M1015.2 640.3v-86.35" stroke="#3a414a" stroke-width="3" stroke-linejoin="round" fill="none"/><path d="M1016.67 641.8h-2.94v-1.54h2.94z" stroke="#3a414a" stroke-width=".05" fill="#3a414a"/><path d="M1015.2 539.46l7.5 13h-15z" stroke="#3a414a" stroke-width="3" fill="#3a414a"/><path d="M1054.75 533.65v90.66" stroke="#3a414a" stroke-width="3" fill="none"/><path d="M1056.22 533.7h-2.95v-1.23l2.95-.63z" stroke="#3a414a" stroke-width=".05" fill="#3a414a"/><path d="M1054.75 638.8l-7.5-13h15z" stroke="#3a414a" stroke-width="3" fill="#3a414a"/><path d="M871.72 358.2L746.97 233.43" stroke="#3a414a" stroke-width="3" fill="none"/><path d="M873.45 357.84l-.02.03-1.32 2.8-1.45-1.46 2.1-2.08z" stroke="#3a414a" stroke-width=".05" fill="#3a414a"/><path d="M736.72 223.2l14.5 3.88-10.62 10.6z" stroke="#3a414a" stroke-width="3" fill="#3a414a"/><path d="M735.66 257.86l115.78 115.78" stroke="#3a414a" stroke-width="3" fill="none"/><path d="M736.73 256.85l-2.1 2.08-.03-.04v-4.2z" stroke="#3a414a" stroke-width=".05" fill="#3a414a"/><path d="M861.68 383.88l-14.5-3.88 10.62-10.6z" stroke="#3a414a" stroke-width="3" fill="#3a414a"/><path d="M1138.94 328.58l142.82-100.4" stroke="#3a414a" stroke-width="3" fill="none"/><path d="M1139.82 329.77l-1.12.8-.7-.82-1.3-1.4 1.42-1z" stroke="#3a414a" stroke-width=".05" fill="#3a414a"/><path d="M1293.6 219.86l-6.3 13.6-8.63-12.27z" stroke="#3a414a" stroke-width="3" fill="#3a414a"/><path d="M1294.8 256.28l-128.04 82.82" stroke="#3a414a" stroke-width="3" fill="none"/><path d="M1296.07 257.22l-.5.32-1.6-2.48 2.1-1.35z" stroke="#3a414a" stroke-width=".05" fill="#3a414a"/><path d="M1154.6 346.96l6.83-13.35 8.14 12.6z" stroke="#3a414a" stroke-width="3" fill="#3a414a"/><defs><path d="M98-1322v-168h1126v168H757V0H567v-1322H98" id="j"/><path d="M158 0v-1118h180V0H158zm91-1301c-68 0-125-53-125-119s57-119 125-119c69 0 126 53 126 119s-57 119-126 119" id="k"/><path d="M158 0v-1118h174v172h12c41-113 157-188 290-188 26 0 70 2 91 3v181c-11-2-60-10-108-10-161 0-279 109-279 260V0H158" id="l"/><path d="M471 26C259 26 90-98 90-318c0-256 228-303 435-329 202-27 287-16 287-108 0-139-79-219-234-219-161 0-248 86-283 164l-173-57c86-203 278-265 451-265 150 0 419 46 419 395V0H815v-152h-12C765-73 660 26 471 26zm31-159c199 0 310-134 310-271v-155c-30 35-226 55-295 64-131 17-246 59-246 186 0 116 97 176 231 176" id="m"/><path d="M338-670V0H158v-1118h173l1 207c72-158 192-221 342-221 226 0 378 139 378 422V0H872v-695c0-172-96-275-252-275-161 0-282 109-282 300" id="n"/><g id="a"><use transform="matrix(0.0126953125,0,0,0.0126953125,0,0)" xlink:href="#j"/><use transform="matrix(0.0126953125,0,0,0.0126953125,16.783203125,0)" xlink:href="#k"/><use transform="matrix(0.0126953125,0,0,0.0126953125,23.080078125,0)" xlink:href="#l"/><use transform="matrix(0.0126953125,0,0,0.0126953125,32.8681640625,0)" xlink:href="#m"/><use transform="matrix(0.0126953125,0,0,0.0126953125,47.4677734375,0)" xlink:href="#n"/><use transform="matrix(0.0126953125,0,0,0.0126953125,62.8291015625,0)" xlink:href="#m"/></g><path d="M180 0v-1490h510c348 0 508 209 508 474 0 266-160 477-507 477H370V0H180zm190-706h312c236 0 327-133 327-310 0-176-91-307-329-307H370v617" id="o"/><path d="M537 14c-226 0-379-139-379-422v-710h180v695c0 172 97 275 253 275 160 0 281-109 281-300v-670h181V0H879v-209C806-46 684 14 537 14" id="p"/><path d="M677 24c-213 0-288-135-325-197h-20V0H158v-1490h180v551h14c37-59 106-193 324-193 279 0 474 222 474 576 0 356-194 580-473 580zm-27-161c209 0 317-186 317-421 0-232-105-413-317-413-206 0-314 166-314 413 0 249 111 421 314 421" id="q"/><path d="M338-1490V0H158v-1490h180" id="r"/><path d="M613 24c-304 0-509-231-509-576 0-350 205-580 509-580 216 0 392 114 453 309l-173 49c-33-115-133-197-280-197-223 0-326 196-326 419 0 220 103 415 326 415 150 0 252-85 285-206l172 49C1010-95 832 24 613 24" id="s"/><g id="b"><use transform="matrix(0.0126953125,0,0,0.0126953125,0,0)" xlink:href="#o"/><use transform="matrix(0.0126953125,0,0,0.0126953125,16.60546875,0)" xlink:href="#p"/><use transform="matrix(0.0126953125,0,0,0.0126953125,31.9794921875,0)" xlink:href="#q"/><use transform="matrix(0.0126953125,0,0,0.0126953125,47.8994140625,0)" xlink:href="#r"/><use transform="matrix(0.0126953125,0,0,0.0126953125,54.1962890625,0)" xlink:href="#k"/><use transform="matrix(0.0126953125,0,0,0.0126953125,60.4931640625,0)" xlink:href="#s"/></g><path d="M538 24C308 24 148-78 108-271l171-41c32 123 123 178 257 178 156 0 256-77 256-169 0-77-54-128-164-154l-186-44c-203-48-300-148-300-305 0-192 176-326 414-326 230 0 351 112 402 269l-163 42c-31-80-94-158-238-158-133 0-233 69-233 162 0 83 57 129 188 160l169 40c203 48 298 149 298 302 0 196-179 339-441 339" id="t"/><path d="M158 418v-1536h174v179h20c37-59 106-193 324-193 279 0 474 222 474 576 0 356-194 580-473 580-213 0-288-135-325-197h-14v591H158zm492-555c209 0 317-186 317-421 0-232-105-413-317-413-206 0-314 166-314 413 0 249 111 421 314 421" id="u"/><path d="M613 24c-304 0-509-231-509-576 0-350 205-580 509-580 305 0 511 230 511 580 0 345-206 576-511 576zm0-161c226 0 329-195 329-415 0-222-103-419-329-419-223 0-326 196-326 419 0 220 103 415 326 415" id="v"/><path d="M598-1118v154H368v674c0 100 37 144 132 144 23 0 62-6 92-12L629-6c-37 13-88 20-134 20-193 0-307-107-307-290v-688H20v-154h168v-266h180v266h230" id="w"/><g id="c"><use transform="matrix(0.0126953125,0,0,0.0126953125,0,0)" xlink:href="#j"/><use transform="matrix(0.0126953125,0,0,0.0126953125,15.310546875,0)" xlink:href="#l"/><use transform="matrix(0.0126953125,0,0,0.0126953125,25.0986328125,0)" xlink:href="#m"/><use transform="matrix(0.0126953125,0,0,0.0126953125,39.6982421875,0)" xlink:href="#n"/><use transform="matrix(0.0126953125,0,0,0.0126953125,55.0595703125,0)" xlink:href="#t"/><use transform="matrix(0.0126953125,0,0,0.0126953125,68.783203125,0)" xlink:href="#u"/><use transform="matrix(0.0126953125,0,0,0.0126953125,84.703125,0)" xlink:href="#v"/><use transform="matrix(0.0126953125,0,0,0.0126953125,100.29296875,0)" xlink:href="#l"/><use transform="matrix(0.0126953125,0,0,0.0126953125,110.4873046875,0)" xlink:href="#w"/><use transform="matrix(0.0126953125,0,0,0.0126953125,119.1201171875,0)" xlink:href="#m"/><use transform="matrix(0.0126953125,0,0,0.0126953125,133.7197265625,0)" xlink:href="#w"/><use transform="matrix(0.0126953125,0,0,0.0126953125,142.2255859375,0)" xlink:href="#k"/><use transform="matrix(0.0126953125,0,0,0.0126953125,148.5224609375,0)" xlink:href="#v"/><use transform="matrix(0.0126953125,0,0,0.0126953125,164.1123046875,0)" xlink:href="#n"/></g><path d="M657 26c-323 0-524-166-541-416h195c15 169 171 246 346 246 202 0 356-106 356-265 5-203-294-238-475-293-239-73-380-191-380-389 0-252 224-419 512-419 294 0 499 171 508 396H992c-17-145-151-228-328-228-193 0-321 102-321 242 0 156 175 211 284 241l149 41c160 44 422 134 422 412 0 244-197 432-541 432" id="x"/><path d="M140 405l46-156c120 36 205 19 263-150l32-93L54-1118h197c107 313 237 620 324 950 87-331 219-637 326-950h196L606 167c-68 178-176 259-334 259-64 0-113-12-132-21" id="y"/><path d="M628 24c-324 0-524-230-524-574 0-343 198-582 503-582 237 0 487 146 487 559v75H286c9 234 145 362 343 362 132 0 231-58 273-172l174 48C1024-91 857 24 628 24zM287-650h624c-17-190-120-322-304-322-192 0-309 151-320 322" id="z"/><path d="M158 0v-1118h175l1 205c55-151 181-225 313-225 147 0 245 90 285 228 53-141 190-228 352-228 194 0 352 125 352 384V0h-181v-749c0-161-105-225-225-225-151 0-243 103-243 244V0H807v-767c0-124-93-207-219-207-131 0-250 92-250 270V0H158" id="A"/><g id="d"><use transform="matrix(0.0126953125,0,0,0.0126953125,0,0)" xlink:href="#x"/><use transform="matrix(0.0126953125,0,0,0.0126953125,16.681640625,0)" xlink:href="#y"/><use transform="matrix(0.0126953125,0,0,0.0126953125,31.2939453125,0)" xlink:href="#t"/><use transform="matrix(0.0126953125,0,0,0.0126953125,45.017578125,0)" xlink:href="#w"/><use transform="matrix(0.0126953125,0,0,0.0126953125,53.26953125,0)" xlink:href="#z"/><use transform="matrix(0.0126953125,0,0,0.0126953125,68.427734375,0)" xlink:href="#A"/></g><path d="M611 442c-248 0-391-105-460-228l146-94c47 65 117 165 314 165 178 0 307-82 307-266v-224h-17C863-141 792-18 576-18c-268 0-472-195-472-546 0-346 197-568 476-568 216 0 288 133 326 193h17v-179h175V29c0 289-215 413-487 413zm-5-620c203 0 314-146 314-390 0-237-108-403-314-403-213 0-319 180-319 403 0 230 109 390 319 390" id="B"/><g id="e"><use transform="matrix(0.0126953125,0,0,0.0126953125,0,0)" xlink:href="#o"/><use transform="matrix(0.0126953125,0,0,0.0126953125,16.60546875,0)" xlink:href="#m"/><use transform="matrix(0.0126953125,0,0,0.0126953125,31.205078125,0)" xlink:href="#t"/><use transform="matrix(0.0126953125,0,0,0.0126953125,44.9287109375,0)" xlink:href="#t"/><use transform="matrix(0.0126953125,0,0,0.0126953125,58.65234375,0)" xlink:href="#z"/><use transform="matrix(0.0126953125,0,0,0.0126953125,73.810546875,0)" xlink:href="#n"/><use transform="matrix(0.0126953125,0,0,0.0126953125,89.171875,0)" xlink:href="#B"/><use transform="matrix(0.0126953125,0,0,0.0126953125,105.1171875,0)" xlink:href="#z"/><use transform="matrix(0.0126953125,0,0,0.0126953125,120.275390625,0)" xlink:href="#l"/><use transform="matrix(0.0126953125,0,0,0.0126953125,130.0634765625,0)" xlink:href="#t"/></g><g id="f"><use transform="matrix(0.0126953125,0,0,0.0126953125,0,0)" xlink:href="#j"/><use transform="matrix(0.0126953125,0,0,0.0126953125,15.310546875,0)" xlink:href="#l"/><use transform="matrix(0.0126953125,0,0,0.0126953125,25.0986328125,0)" xlink:href="#m"/><use transform="matrix(0.0126953125,0,0,0.0126953125,39.6982421875,0)" xlink:href="#n"/><use transform="matrix(0.0126953125,0,0,0.0126953125,55.0595703125,0)" xlink:href="#t"/><use transform="matrix(0.0126953125,0,0,0.0126953125,68.783203125,0)" xlink:href="#k"/><use transform="matrix(0.0126953125,0,0,0.0126953125,75.080078125,0)" xlink:href="#w"/></g><path d="M645 0H180v-1490h484c435 0 692 280 692 742 0 466-257 748-711 748zM370-168h263c363 0 539-218 539-580 0-358-176-574-521-574H370v1154" id="C"/><path d="M481 0L54-1118h197c107 314 236 620 325 951 87-331 217-637 324-951h197L670 0H481" id="D"/><g id="g"><use transform="matrix(0.0126953125,0,0,0.0126953125,0,0)" xlink:href="#C"/><use transform="matrix(0.0126953125,0,0,0.0126953125,18.763671875,0)" xlink:href="#l"/><use transform="matrix(0.0126953125,0,0,0.0126953125,28.9580078125,0)" xlink:href="#k"/><use transform="matrix(0.0126953125,0,0,0.0126953125,35.2548828125,0)" xlink:href="#D"/><use transform="matrix(0.0126953125,0,0,0.0126953125,49.359375,0)" xlink:href="#z"/><use transform="matrix(0.0126953125,0,0,0.0126953125,64.517578125,0)" xlink:href="#l"/><use transform="matrix(0.0126953125,0,0,0.0126953125,74.3056640625,0)" xlink:href="#t"/></g><path d="M52 0l541-1490h220L1361 0h-200l-149-416H398L254 0H52zm404-582h497c-103-290-145-390-251-756-108 377-145 460-246 756" id="E"/><path d="M577 24c-279 0-473-224-473-580 0-354 195-576 474-576 218 0 287 134 324 193h14v-551h180V0H922v-173h-20C865-111 790 24 577 24zm27-161c203 0 314-172 314-421 0-247-108-413-314-413-212 0-317 181-317 413 0 235 108 421 317 421" id="F"/><g id="h"><use transform="matrix(0.0126953125,0,0,0.0126953125,0,0)" xlink:href="#E"/><use transform="matrix(0.0126953125,0,0,0.0126953125,17.9384765625,0)" xlink:href="#F"/><use transform="matrix(0.0126953125,0,0,0.0126953125,33.8583984375,0)" xlink:href="#A"/><use transform="matrix(0.0126953125,0,0,0.0126953125,56.6337890625,0)" xlink:href="#k"/><use transform="matrix(0.0126953125,0,0,0.0126953125,62.9306640625,0)" xlink:href="#n"/></g><path d="M678-1118v154H420V0H240v-964H20v-154h220v-149c0-194 155-293 318-293 85 0 141 18 168 30l-50 154c-19-6-47-17-97-17-111 0-159 58-159 166v109h258" id="G"/><g id="i"><use transform="matrix(0.0126953125,0,0,0.0126953125,0,0)" xlink:href="#x"/><use transform="matrix(0.0126953125,0,0,0.0126953125,16.681640625,0)" xlink:href="#w"/><use transform="matrix(0.0126953125,0,0,0.0126953125,25.314453125,0)" xlink:href="#m"/><use transform="matrix(0.0126953125,0,0,0.0126953125,39.9140625,0)" xlink:href="#G"/><use transform="matrix(0.0126953125,0,0,0.0126953125,48.521484375,0)" xlink:href="#G"/></g></defs></g></svg>