<svg xmlns="http://www.w3.org/2000/svg" viewBox="0 0 800 800">
  <!-- Background -->
  <rect width="800" height="800" fill="#f9f9f9"/>

  <!-- Title -->
  <text x="400" y="40" font-family="Arial" font-size="24" font-weight="bold" text-anchor="middle" fill="#222">
    'Onion' Model of Transportation System Stakeholders
  </text>

  <!-- Onion Circles -->
  <circle cx="400" cy="400" r="100" fill="none" stroke="#4CAF50" stroke-width="2"/>
  <circle cx="400" cy="400" r="200" fill="none" stroke="#4CAF50" stroke-width="2"/>
  <circle cx="400" cy="400" r="300" fill="none" stroke="#4CAF50" stroke-width="2"/>
  <circle cx="400" cy="400" r="375" fill="none" stroke="#4CAF50" stroke-width="1.5" stroke-dasharray="6,4"/>

  <!-- Labels for Layers -->
  <text x="400" y="380" font-family="Arial" font-size="18" font-weight="bold" text-anchor="middle" fill="#333">The Product</text>
  <text x="400" y="265" font-family="Arial" font-size="16" font-weight="bold" text-anchor="middle" fill="#333">The System</text>
  <text x="400" y="155" font-family="Arial" font-size="16" font-weight="bold" text-anchor="middle" fill="#333">The Containing System</text>
  <text x="400" y="95" font-family="Arial" font-size="16" font-weight="bold" text-anchor="middle" fill="#333">The Wider Environment</text>

  <!-- Product Labels -->
  <text x="400" y="400" font-family="Arial" font-size="14" fill="#333" text-anchor="middle">Mobile and Web Apps</text>
  <text x="400" y="440" font-family="Arial" font-size="14" fill="#333" text-anchor="middle">Admin Dashboard</text>

  <!-- Stakeholders -->
  <!-- System -->
  <circle cx="400" cy="300" r="8" fill="#1976D2"/>
  <text x="400" y="330" font-size="12" fill="#1976D2" text-anchor="middle">Public Transportation</text>
  <text x="400" y="345" font-size="12" fill="#1976D2" text-anchor="middle">Users</text>

  <circle cx="340" cy="450" r="8" fill="#1976D2"/>
  <text x="340" y="475" font-size="12" fill="#1976D2" text-anchor="middle">IT Support</text>

  <circle cx="460" cy="450" r="8" fill="#1976D2"/>
  <text x="460" y="475" font-size="12" fill="#1976D2" text-anchor="middle">Operators/Drivers</text>

  <!-- Containing System -->
  <circle cx="400" cy="200" r="8" fill="#1976D2"/>
  <text x="400" y="225" font-size="12" fill="#1976D2" text-anchor="middle">Public Transportation</text>
  <text x="400" y="240" font-size="12" fill="#1976D2" text-anchor="middle">Administration</text>

  <circle cx="250" cy="300" r="8" fill="#1976D2"/>
  <text x="250" y="325" font-size="12" fill="#1976D2" text-anchor="middle">City Government</text>
  <text x="250" y="340" font-size="12" fill="#1976D2" text-anchor="middle">Officials</text>

  <circle cx="550" cy="300" r="8" fill="#1976D2"/>
  <text x="550" y="325" font-size="12" fill="#1976D2" text-anchor="middle">System Investors</text>
  <text x="550" y="340" font-size="12" fill="#1976D2" text-anchor="middle">/Funders</text>

  <!-- Wider Environment -->
  <circle cx="520" cy="150" r="6" fill="#1976D2"/>
  <text x="520" y="175" font-size="11" fill="#1976D2" text-anchor="middle">National Government</text>

  <circle cx="200" cy="200" r="6" fill="#1976D2"/>
  <text x="200" y="225" font-size="11" fill="#1976D2" text-anchor="middle">Tourism Industry</text>

  <circle cx="575" cy="400" r="6" fill="#1976D2"/>
  <text x="575" y="425" font-size="11" fill="#1976D2" text-anchor="middle">Local Businesses</text>

  <circle cx="225" cy="400" r="6" fill="#1976D2"/>
  <text x="225" y="425" font-size="11" fill="#1976D2" text-anchor="middle">Disabled Citizens</text>

  <circle cx="650" cy="300" r="6" fill="#43A047"/>
  <text x="650" y="325" font-size="11" fill="#43A047" text-anchor="middle">Environmental Groups</text>

  <circle cx="250" cy="500" r="6" fill="#1976D2"/>
  <text x="250" y="525" font-size="11" fill="#1976D2" text-anchor="middle">Third-party Developers</text>

  <circle cx="400" cy="550" r="6" fill="#1976D2"/>
  <text x="400" y="575" font-size="11" fill="#1976D2" text-anchor="middle">Traffic Police</text>
  <text x="400" y="588" font-size="11" fill="#1976D2" text-anchor="middle">/Law Enforcement</text>

  <circle cx="550" cy="500" r="6" fill="#1976D2"/>
  <text x="550" y="525" font-size="11" fill="#1976D2" text-anchor="middle">Bike/Scooter Rentals</text>

  


 

  <!-- Arrow Definition -->
  <defs>
    <marker id="arrow" markerWidth="10" markerHeight="10" refX="9" refY="3" orient="auto" markerUnits="strokeWidth">
      <path d="M0,0 L0,6 L9,3 z" fill="#000"/>
    </marker>
  </defs>
</svg>
