<svg viewBox="0 0 800 600" xmlns="http://www.w3.org/2000/svg">
  <!-- Participant boxes -->
  <rect x="50" y="20" width="100" height="40" stroke="black" fill="white" stroke-width="1" />
  <rect x="200" y="20" width="100" height="40" stroke="black" fill="white" stroke-width="1" />
  <rect x="350" y="20" width="100" height="40" stroke="black" fill="white" stroke-width="1" />
  <rect x="500" y="20" width="100" height="40" stroke="black" fill="white" stroke-width="1" />
  <rect x="650" y="20" width="100" height="40" stroke="black" fill="white" stroke-width="1" />
  
  <!-- Participant labels -->
  <text x="100" y="45" text-anchor="middle">User</text>
  <text x="250" y="45" text-anchor="middle">MobileApp</text>
  <text x="400" y="45" text-anchor="middle">RoutePlanner</text>
  <text x="550" y="45" text-anchor="middle">RealTimeTracker</text>
  <text x="700" y="45" text-anchor="middle">Database</text>
  
  <!-- Lifelines -->
  <line x1="100" y1="60" x2="100" y2="580" stroke="black" stroke-width="1" stroke-dasharray="5,5" />
  <line x1="250" y1="60" x2="250" y2="580" stroke="black" stroke-width="1" stroke-dasharray="5,5" />
  <line x1="400" y1="60" x2="400" y2="580" stroke="black" stroke-width="1" stroke-dasharray="5,5" />
  <line x1="550" y1="60" x2="550" y2="580" stroke="black" stroke-width="1" stroke-dasharray="5,5" />
  <line x1="700" y1="60" x2="700" y2="580" stroke="black" stroke-width="1" stroke-dasharray="5,5" />
  
  <!-- Activation boxes -->
  <rect x="95" y="100" width="10" height="60" stroke="black" fill="white" stroke-width="1" />
  <rect x="245" y="100" width="10" height="400" stroke="black" fill="white" stroke-width="1" />
  <rect x="395" y="120" width="10" height="250" stroke="black" fill="white" stroke-width="1" />
  <rect x="545" y="210" width="10" height="40" stroke="black" fill="white" stroke-width="1" />
  <rect x="695" y="160" width="10" height="40" stroke="black" fill="white" stroke-width="1" />
  <rect x="695" y="270" width="10" height="40" stroke="black" fill="white" stroke-width="1" />
  <rect x="695" y="350" width="10" height="40" stroke="black" fill="white" stroke-width="1" />
  <rect x="395" y="320" width="10" height="30" stroke="black" fill="white" stroke-width="1" />
  <rect x="95" y="480" width="10" height="60" stroke="black" fill="white" stroke-width="1" />
  <rect x="245" y="500" width="10" height="60" stroke="black" fill="white" stroke-width="1" />
  <rect x="545" y="520" width="10" height="40" stroke="black" fill="white" stroke-width="1" />
  
  <!-- Messages -->
  <!-- User to MobileApp -->
  <line x1="105" y1="100" x2="245" y2="100" stroke="black" stroke-width="1" />
  <polygon points="235,95 245,100 235,105" fill="black" />
  <text x="175" y="95" text-anchor="middle" font-size="12">requestRoute(origin, destination)</text>
  
  <!-- MobileApp to RoutePlanner -->
  <line x1="255" y1="120" x2="395" y2="120" stroke="black" stroke-width="1" />
  <polygon points="385,115 395,120 385,125" fill="black" />
  <text x="325" y="115" text-anchor="middle" font-size="12">findOptimalRoutes(originCoord, destCoord)</text>
  
  <!-- RoutePlanner to Database -->
  <line x1="405" y1="160" x2="695" y2="160" stroke="black" stroke-width="1" />
  <polygon points="685,155 695,160 685,165" fill="black" />
  <text x="550" y="155" text-anchor="middle" font-size="12">getNearbyStops(coordinates)</text>
  
  <!-- Database to RoutePlanner return -->
  <line x1="695" y1="200" x2="405" y2="200" stroke="black" stroke-width="1" stroke-dasharray="5,5" />
  <polygon points="415,195 405,200 415,205" fill="black" />
  <text x="550" y="195" text-anchor="middle" font-size="12">return stops</text>
  
  <!-- RoutePlanner to RealTimeTracker -->
  <line x1="405" y1="210" x2="545" y2="210" stroke="black" stroke-width="1" />
  <polygon points="535,205 545,210 535,215" fill="black" />
  <text x="475" y="205" text-anchor="middle" font-size="12">getVehiclePositions()</text>
  
  <!-- RealTimeTracker to RoutePlanner return -->
  <line x1="545" y1="250" x2="405" y2="250" stroke="black" stroke-width="1" stroke-dasharray="5,5" />
  <polygon points="415,245 405,250 415,255" fill="black" />
  <text x="475" y="245" text-anchor="middle" font-size="12">return livePositions</text>
  
  <!-- RoutePlanner to Database -->
  <line x1="405" y1="270" x2="695" y2="270" stroke="black" stroke-width="1" />
  <polygon points="685,265 695,270 685,275" fill="black" />
  <text x="550" y="265" text-anchor="middle" font-size="12">getRouteOptions(origin, destination)</text>
  
  <!-- Database to RoutePlanner return -->
  <line x1="695" y1="310" x2="405" y2="310" stroke="black" stroke-width="1" stroke-dasharray="5,5" />
  <polygon points="415,305 405,310 415,315" fill="black" />
  <text x="550" y="305" text-anchor="middle" font-size="12">return baseRoutes</text>
  
  <!-- RoutePlanner self-call -->
  <line x1="405" y1="320" x2="425" y2="320" stroke="black" stroke-width="1" />
  <line x1="425" y1="320" x2="425" y2="335" stroke="black" stroke-width="1" />
  <line x1="425" y1="335" x2="405" y2="335" stroke="black" stroke-width="1" />
  <polygon points="415,330 405,335 415,340" fill="black" />
  <text x="465" y="325" text-anchor="middle" font-size="12">calculateETAs(baseRoutes, livePositions)</text>
  
  <!-- RoutePlanner to MobileApp return -->
  <line x1="395" y1="370" x2="255" y2="370" stroke="black" stroke-width="1" stroke-dasharray="5,5" />
  <polygon points="265,365 255,370 265,375" fill="black" />
  <text x="325" y="365" text-anchor="middle" font-size="12">return optimizedRoutes</text>
  
  <!-- MobileApp to Database -->
  <line x1="255" y1="350" x2="695" y2="350" stroke="black" stroke-width="1" />
  <polygon points="685,345 695,350 685,355" fill="black" />
  <text x="475" y="345" text-anchor="middle" font-size="12">getFareInformation(routes, zones)</text>
  
  <!-- Database to MobileApp return -->
  <line x1="695" y1="390" x2="255" y2="390" stroke="black" stroke-width="1" stroke-dasharray="5,5" />
  <polygon points="265,385 255,390 265,395" fill="black" />
  <text x="475" y="385" text-anchor="middle" font-size="12">return fareOptions</text>
  
  <!-- MobileApp self-call -->
  <line x1="255" y1="410" x2="275" y2="410" stroke="black" stroke-width="1" />
  <line x1="275" y1="410" x2="275" y2="425" stroke="black" stroke-width="1" />
  <line x1="275" y1="425" x2="255" y2="425" stroke="black" stroke-width="1" />
  <polygon points="265,420 255,425 265,430" fill="black" />
  <text x="325" y="415" text-anchor="middle" font-size="12">formatRouteDisplay(routes, fares)</text>
  
  <!-- MobileApp to User return -->
  <line x1="245" y1="450" x2="100" y2="450" stroke="black" stroke-width="1" stroke-dasharray="5,5" />
  <polygon points="110,445 100,450 110,455" fill="black" />
  <text x="175" y="445" text-anchor="middle" font-size="12">displayRouteOptions()</text>
  
  <!-- User to MobileApp -->
  <line x1="105" y1="480" x2="245" y2="480" stroke="black" stroke-width="1" />
  <polygon points="235,475 245,480 235,485" fill="black" />
  <text x="175" y="475" text-anchor="middle" font-size="12">selectRoute(routeID)</text>
  
  <!-- MobileApp to RealTimeTracker -->
  <line x1="255" y1="520" x2="545" y2="520" stroke="black" stroke-width="1" />
  <polygon points="535,515 545,520 535,525" fill="black" />
  <text x="400" y="515" text-anchor="middle" font-size="12">subscribeToUpdates(routeID)</text>
  
  <!-- RealTimeTracker to MobileApp return -->
  <line x1="545" y1="560" x2="255" y2="560" stroke="black" stroke-width="1" stroke-dasharray="5,5" />
  <polygon points="265,555 255,560 265,565" fill="black" />
  <text x="400" y="555" text-anchor="middle" font-size="12">confirm subscription</text>
</svg>
